{"glyphs":{"0":{"ha":982,"x_min":0,"x_max":0,"o":"m 301 0 l 681 0 b 829 147 761 0 829 67 l 829 893 b 681 1042 829 974 761 1042 l 301 1042 b 153 893 221 1042 153 974 l 153 147 b 301 0 153 67 221 0 z m 231 147 l 231 197 l 751 754 l 751 147 b 681 78 751 104 725 78 l 301 78 b 231 147 257 78 231 104 z m 231 310 l 231 893 b 301 964 231 938 257 964 l 681 964 b 751 893 725 964 751 938 l 751 858 z "},"1":{"ha":921,"x_min":0,"x_max":0,"o":"m 179 0 l 768 0 l 768 78 l 528 78 b 514 92 519 78 514 83 l 514 1042 l 406 1042 l 153 760 l 211 707 l 435 957 l 435 92 b 421 78 435 83 429 78 l 179 78 z "},"2":{"ha":958,"x_min":0,"x_max":0,"o":"m 181 -3 l 806 0 l 806 78 l 244 75 b 231 89 236 75 231 81 l 231 144 l 786 676 l 786 871 b 615 1042 786 964 711 1042 l 322 1042 b 153 871 229 1042 153 964 l 153 743 l 231 743 l 231 871 b 322 964 231 928 267 964 l 615 964 b 708 871 674 964 708 928 l 708 711 l 153 182 l 153 25 b 181 -3 153 7 163 -3 z "},"3":{"ha":919,"x_min":0,"x_max":0,"o":"m 153 0 l 593 0 b 767 174 706 0 767 88 l 767 324 b 593 496 767 411 706 496 l 317 496 l 736 996 l 713 1042 l 153 1042 l 153 964 l 601 964 l 182 465 l 206 418 l 593 418 b 689 324 653 418 689 376 l 689 174 b 593 78 689 122 653 78 l 153 78 z "},"4":{"ha":954,"x_min":0,"x_max":0,"o":"m 575 319 l 575 0 l 653 0 l 653 319 b 667 333 653 328 658 333 l 801 333 l 801 411 l 667 411 b 653 425 658 411 653 417 l 653 1042 l 575 1042 l 575 425 b 561 411 575 417 569 411 l 244 411 b 231 425 236 411 231 417 l 231 768 l 153 768 l 153 361 b 181 333 153 343 163 333 l 561 333 b 575 319 569 333 575 328 z "},"5":{"ha":917,"x_min":0,"x_max":0,"o":"m 153 0 l 590 0 b 764 171 693 0 764 67 l 764 517 b 590 689 764 619 693 689 l 253 689 b 239 703 244 689 239 694 l 239 942 b 253 956 239 950 244 956 l 713 956 l 713 1042 l 181 1042 b 153 1014 163 1042 153 1032 l 153 631 b 181 603 153 613 163 603 l 590 603 b 678 517 644 603 678 572 l 678 171 b 590 86 678 118 644 86 l 153 86 z "},"6":{"ha":906,"x_min":0,"x_max":0,"o":"m 192 0 l 585 0 b 753 167 678 0 753 75 l 753 490 b 585 658 753 581 678 658 l 264 658 l 556 1044 l 493 1090 l 153 638 l 153 39 b 192 0 153 15 168 0 z m 231 92 l 231 567 b 244 581 231 575 236 581 l 585 581 b 675 490 640 581 675 544 l 675 167 b 585 78 675 111 642 78 l 244 78 b 231 92 236 78 231 83 z "},"7":{"ha":971,"x_min":0,"x_max":0,"o":"m 393 -43 l 818 806 l 818 1014 b 790 1042 818 1032 808 1042 l 181 1042 b 153 1014 163 1042 153 1032 l 153 781 l 231 781 l 229 950 b 243 964 229 958 235 964 l 726 964 b 740 950 735 964 740 958 l 740 825 l 322 -7 z "},"8":{"ha":942,"x_min":0,"x_max":0,"o":"m 339 0 l 603 0 b 789 196 708 0 789 85 l 789 449 b 707 615 789 514 753 583 b 772 751 743 642 772 697 l 772 875 b 614 1042 772 968 706 1042 l 329 1042 b 167 875 238 1042 167 969 l 167 751 b 233 614 167 696 196 640 b 153 449 189 582 153 514 l 153 196 b 339 0 153 86 228 0 z m 231 196 l 231 449 b 339 582 231 524 275 582 l 603 582 b 711 449 668 582 711 524 l 711 196 b 603 74 711 119 671 74 l 339 74 b 231 196 268 74 231 119 z m 244 751 l 244 875 b 329 969 244 935 275 969 l 614 969 b 694 875 665 969 694 935 l 694 751 b 614 650 694 690 665 650 l 329 650 b 244 751 274 650 244 690 z "},"9":{"ha":906,"x_min":0,"x_max":0,"o":"m 714 1042 l 321 1042 b 153 875 214 1042 153 971 l 153 551 b 321 383 153 457 214 383 l 642 383 l 350 -3 l 413 -49 l 753 404 l 753 1003 b 714 1042 753 1026 738 1042 z m 231 551 l 231 875 b 321 964 231 931 264 964 l 661 964 b 675 950 669 964 675 958 l 675 475 b 661 461 675 467 669 461 l 321 461 b 231 551 265 461 231 497 z "}," ":{"ha":569,"x_min":0,"x_max":0,"o":""},"A":{"ha":1142,"x_min":0,"x_max":0,"o":"m 76 0 l 429 0 l 429 74 l 269 74 l 426 356 l 871 356 l 932 74 l 803 74 l 803 0 l 1114 0 l 1114 74 l 1010 74 l 804 1042 l 722 1047 l 176 74 l 76 74 z m 467 429 l 746 931 l 856 429 z "},"B":{"ha":865,"x_min":0,"x_max":0,"o":"m 76 0 l 547 0 b 757 101 622 0 715 38 b 794 269 781 138 800 204 l 794 426 l 650 575 b 744 772 707 621 738 692 b 707 940 750 838 731 904 b 497 1042 665 1004 572 1042 l 76 1042 l 76 965 l 160 965 b 174 951 168 965 174 960 l 174 90 b 160 76 174 82 168 76 l 76 76 z m 250 90 l 250 390 l 581 535 l 718 397 l 718 239 b 693 143 718 199 707 164 b 547 76 664 99 600 76 l 264 76 b 250 90 256 76 250 82 z m 250 474 l 250 951 b 264 965 250 960 256 965 l 497 965 b 643 899 550 965 614 943 b 668 772 661 872 674 825 b 560 610 660 689 624 638 z "},"C":{"ha":865,"x_min":0,"x_max":0,"o":"m 643 0 l 761 0 b 789 28 779 0 789 10 l 789 200 l 715 200 l 715 92 b 701 78 715 83 710 78 l 643 78 b 154 664 392 78 154 385 l 154 701 b 401 964 154 851 251 964 l 701 964 b 715 950 710 964 715 958 l 715 842 l 789 842 l 789 1014 b 761 1042 789 1032 779 1042 l 401 1042 b 76 701 190 1042 76 888 l 76 664 b 643 0 76 349 313 0 z "},"D":{"ha":924,"x_min":0,"x_max":0,"o":"m 76 0 l 288 0 b 854 664 618 0 854 349 l 854 701 b 529 1042 854 888 740 1042 l 76 1042 l 76 965 l 160 965 b 174 951 168 965 174 960 l 174 90 b 160 76 174 82 168 76 l 76 76 z m 251 92 l 251 950 b 265 964 251 958 257 964 l 529 964 b 776 701 679 964 776 851 l 776 664 b 288 78 776 385 539 78 l 265 78 b 251 92 257 78 251 83 z "},"E":{"ha":850,"x_min":0,"x_max":0,"o":"m 76 0 l 642 0 b 671 13 651 1 661 4 l 774 101 l 726 158 l 628 75 l 275 75 b 261 89 267 75 261 81 l 261 533 b 275 547 261 542 267 547 l 679 547 l 679 621 l 275 621 b 261 635 267 621 261 626 l 261 953 b 275 967 261 961 267 967 l 733 967 l 733 1042 l 76 1042 l 76 967 l 171 967 b 185 953 179 967 185 961 l 185 89 b 171 75 185 81 179 75 l 76 75 z "},"F":{"ha":810,"x_min":0,"x_max":0,"o":"m 76 0 l 372 0 l 372 75 l 275 75 b 261 89 267 75 261 81 l 261 518 b 275 532 261 526 267 532 l 679 532 l 679 606 l 275 606 b 261 619 267 606 261 611 l 261 953 b 275 967 261 961 267 967 l 733 967 l 733 1042 l 76 1042 l 76 967 l 171 967 b 185 953 179 967 185 961 l 185 89 b 171 75 185 81 179 75 l 76 75 z "},"G":{"ha":908,"x_min":0,"x_max":0,"o":"m 643 0 l 804 0 b 832 28 822 0 832 10 l 832 496 b 804 524 832 514 822 524 l 551 524 l 551 447 l 744 447 b 758 433 753 447 758 442 l 758 92 b 744 78 758 83 753 78 l 643 78 b 154 664 392 78 154 385 l 154 701 b 401 964 154 851 251 964 l 743 964 b 757 950 751 964 757 958 l 757 842 l 831 842 l 831 1014 b 803 1042 831 1032 821 1042 l 401 1042 b 76 701 190 1042 76 888 l 76 664 b 643 0 76 349 313 0 z "},"H":{"ha":1031,"x_min":0,"x_max":0,"o":"m 76 0 l 351 0 l 351 75 l 265 75 b 251 89 257 75 251 81 l 251 525 b 265 539 251 533 257 539 l 765 539 b 778 525 774 539 778 533 l 778 89 b 764 75 778 79 772 75 l 678 75 l 678 0 l 954 0 l 954 75 l 868 75 b 854 89 860 75 854 81 l 854 1003 b 817 1042 854 1025 839 1042 l 678 1042 l 678 968 l 765 968 b 779 954 774 968 779 964 l 779 629 b 765 615 779 619 774 615 l 265 615 b 251 629 257 615 251 621 l 251 1003 b 214 1042 251 1025 236 1042 l 76 1042 l 76 968 l 163 968 b 176 954 171 968 176 963 l 175 89 b 161 75 175 79 169 75 l 76 75 z "},"I":{"ha":529,"x_min":0,"x_max":0,"o":"m 76 0 l 453 0 l 453 75 l 317 75 b 303 89 308 75 303 81 l 303 953 b 317 967 303 961 308 967 l 453 967 l 453 1042 l 76 1042 l 76 967 l 213 967 b 226 953 221 967 226 961 l 226 89 b 213 75 226 81 221 75 l 76 75 z "},"J":{"ha":800,"x_min":0,"x_max":0,"o":"m 325 0 l 408 0 b 611 214 542 0 611 61 l 611 954 b 625 968 611 963 617 968 l 724 968 l 724 1042 l 308 1042 l 308 968 l 521 968 b 535 954 529 968 535 963 l 535 214 b 408 75 535 107 496 75 l 335 75 l 129 276 l 76 224 l 288 15 b 325 0 299 4 311 0 z "},"K":{"ha":994,"x_min":0,"x_max":0,"o":"m 76 0 l 358 0 l 358 75 l 268 75 b 254 89 260 75 254 81 l 254 418 l 354 526 l 746 1 l 918 1 l 918 76 l 804 76 l 413 589 l 761 967 l 878 967 l 878 1042 l 497 1042 l 497 967 l 650 967 l 254 535 l 254 1014 b 226 1042 254 1032 244 1042 l 76 1042 l 76 968 l 164 968 b 178 954 172 968 178 963 l 178 89 b 164 75 178 81 172 75 l 76 75 z "},"L":{"ha":831,"x_min":0,"x_max":0,"o":"m 76 0 l 617 0 b 651 13 629 0 640 3 l 754 101 l 707 158 l 608 75 l 261 75 b 247 89 253 75 247 81 l 247 953 b 261 967 247 961 253 967 l 336 967 l 336 1042 l 76 1042 l 76 967 l 157 967 b 171 953 165 967 171 961 l 171 89 b 157 75 171 81 165 75 l 76 75 z "},"M":{"ha":1489,"x_min":0,"x_max":0,"o":"m 132 954 l 132 0 l 233 0 l 622 906 l 776 189 l 857 183 l 1263 882 l 1263 88 b 1249 74 1263 79 1257 74 l 1150 74 l 1150 0 l 1413 0 l 1413 74 l 1353 74 b 1339 88 1344 74 1339 79 l 1339 1042 l 1260 1042 l 833 306 l 676 1042 l 590 1042 l 208 135 l 208 954 b 222 968 208 963 214 968 l 276 968 l 276 1042 l 76 1042 l 76 968 l 118 968 b 132 954 126 968 132 963 z "},"N":{"ha":1107,"x_min":0,"x_max":0,"o":"m 76 0 l 353 0 l 353 75 l 257 75 b 243 89 249 75 243 81 l 243 956 l 799 0 l 921 0 b 949 28 939 0 949 10 l 950 954 b 964 968 950 964 956 968 l 1031 968 l 1031 1042 l 767 1042 l 767 968 l 858 968 b 872 954 867 968 872 964 l 874 78 l 846 78 l 288 1042 l 76 1042 l 76 967 l 151 967 b 165 953 160 967 165 963 l 167 89 b 153 75 167 81 161 75 l 76 75 z "},"O":{"ha":1000,"x_min":0,"x_max":0,"o":"m 361 0 l 638 0 b 875 246 774 0 875 110 l 875 794 b 638 1042 875 938 772 1042 l 361 1042 b 125 794 226 1042 125 938 l 125 246 b 361 0 125 110 225 0 z m 201 246 l 201 794 b 361 965 201 894 267 965 l 638 965 b 799 794 731 965 799 894 l 799 246 b 638 76 799 146 732 76 l 361 76 b 201 246 267 76 201 146 z "},"P":{"ha":822,"x_min":0,"x_max":0,"o":"m 76 0 l 351 0 l 351 76 l 264 76 b 250 90 256 76 250 82 l 250 381 l 593 531 b 751 763 686 571 743 658 b 707 940 757 833 731 904 b 497 1042 665 1004 572 1042 l 76 1042 l 76 965 l 160 965 b 174 951 168 965 174 960 l 174 90 b 160 76 174 82 168 76 l 76 76 z m 250 464 l 250 951 b 264 965 250 960 256 965 l 497 965 b 643 899 550 965 614 943 b 675 763 661 872 681 821 b 560 600 667 679 624 628 z "},"Q":{"ha":1000,"x_min":0,"x_max":0,"o":"m 361 0 l 638 0 l 661 1 l 756 -162 l 835 -140 l 739 22 b 875 246 821 61 875 146 l 875 794 b 638 1042 875 938 772 1042 l 361 1042 b 125 794 226 1042 125 938 l 125 246 b 361 0 125 110 225 0 z m 201 246 l 201 794 b 361 965 201 894 267 965 l 638 965 b 799 794 731 965 799 894 l 799 246 b 700 88 799 169 760 111 l 557 329 l 488 300 l 617 76 l 361 76 b 201 246 267 76 201 146 z "},"R":{"ha":882,"x_min":0,"x_max":0,"o":"m 101 0 l 325 0 l 325 75 l 264 75 b 250 89 256 75 250 81 l 250 415 l 414 488 l 672 0 l 813 0 l 813 75 l 719 75 l 483 518 l 593 565 b 747 772 686 606 739 668 b 710 940 753 838 733 904 b 497 1042 668 1004 578 1042 l 76 1042 l 76 965 l 160 965 b 174 951 168 965 174 960 l 174 89 b 160 75 174 81 168 75 l 101 75 z m 250 499 l 250 951 b 264 965 250 960 256 965 l 497 965 b 643 899 550 965 614 943 b 668 772 661 872 674 825 b 560 635 660 689 624 663 z "},"S":{"ha":947,"x_min":0,"x_max":0,"o":"m 178 0 l 638 0 b 878 260 767 0 878 115 l 878 321 b 636 578 878 467 814 571 l 400 588 b 200 761 268 593 200 640 l 200 786 b 360 965 200 878 264 965 l 660 965 b 674 951 668 965 674 960 l 674 874 l 749 874 l 749 1014 b 721 1042 749 1032 739 1042 l 360 1042 b 125 786 236 1042 125 931 l 125 754 b 401 504 125 567 263 508 l 639 497 b 799 321 743 494 799 428 l 799 260 b 638 76 799 164 732 76 l 239 76 b 225 90 231 76 225 82 l 225 224 l 150 224 l 150 28 b 178 0 150 10 160 0 z "},"T":{"ha":932,"x_min":0,"x_max":0,"o":"m 779 953 l 779 819 l 856 819 l 856 1014 b 828 1042 856 1032 846 1042 l 104 1042 b 76 1014 86 1042 76 1032 l 76 819 l 153 819 l 153 953 b 167 967 153 961 158 967 l 414 967 b 428 953 422 967 428 961 l 428 89 b 414 75 428 81 422 75 l 278 75 l 278 0 l 654 0 l 654 75 l 518 75 b 504 89 510 75 504 81 l 504 953 b 518 967 504 961 510 967 l 765 967 b 779 953 774 967 779 961 z "},"U":{"ha":1046,"x_min":0,"x_max":0,"o":"m 433 0 l 608 -1 b 897 300 781 -3 897 86 l 897 951 b 911 965 897 960 903 965 l 969 965 l 969 1042 l 728 1042 l 728 965 l 807 965 b 821 951 815 965 821 960 l 821 300 b 608 75 821 132 728 75 l 433 75 b 226 300 318 75 226 132 l 226 951 b 240 965 226 960 232 965 l 318 965 l 318 1042 l 76 1042 l 76 965 l 136 965 b 150 951 144 965 150 960 l 150 300 b 433 0 150 86 265 1 z "},"V":{"ha":1072,"x_min":0,"x_max":0,"o":"m 440 -6 l 986 968 l 1100 968 l 1100 1042 l 719 1042 l 719 968 l 893 968 l 417 111 l 231 968 l 346 968 l 346 1042 l 76 1042 l 76 968 l 153 968 l 358 0 z "},"W":{"ha":1507,"x_min":0,"x_max":0,"o":"m 178 0 l 264 0 l 704 701 l 990 0 l 1067 0 l 1332 968 l 1431 968 l 1431 1042 l 1029 1042 l 1029 968 l 1253 968 l 1026 136 l 740 813 l 688 813 l 254 124 l 254 968 l 450 968 l 450 1042 l 76 1042 l 76 968 l 178 968 z "},"X":{"ha":1117,"x_min":0,"x_max":0,"o":"m 703 0 l 1040 0 l 1040 74 l 901 74 l 622 525 l 893 968 l 1010 968 l 1010 1042 l 703 1042 l 703 967 l 801 967 l 558 567 l 315 967 l 411 967 l 411 1042 l 107 1042 l 107 968 l 224 968 l 494 525 l 215 74 l 76 74 l 76 0 l 411 0 l 411 75 l 308 75 l 558 476 l 808 75 l 703 75 z "},"Y":{"ha":938,"x_min":0,"x_max":0,"o":"m 458 363 l 786 968 l 861 968 l 861 1042 l 589 1042 l 589 968 l 697 968 l 426 451 l 235 968 l 303 968 l 303 1042 l 76 1042 l 76 968 l 157 968 l 382 363 l 382 74 l 282 74 l 282 0 l 554 0 l 554 74 l 458 74 z "},"Z":{"ha":907,"x_min":0,"x_max":0,"o":"m 101 0 l 803 0 b 831 28 821 0 831 10 l 831 225 l 754 225 l 754 92 b 740 78 754 83 749 78 l 190 78 l 817 993 l 786 1042 l 158 1042 b 131 1014 140 1042 131 1032 l 132 814 l 208 814 l 208 951 b 222 965 208 960 214 965 l 697 965 l 76 54 z "},"a":{"ha":869,"x_min":0,"x_max":0,"o":"m 314 -8 b 411 25 353 -8 389 6 l 606 206 l 606 0 l 682 0 l 682 628 b 643 667 682 650 665 667 l 274 667 l 274 593 l 592 593 b 606 579 600 593 606 588 l 606 465 l 331 465 b 188 338 229 465 188 426 l 188 117 b 314 -8 188 31 250 -8 z m 264 117 l 264 338 b 331 392 264 382 275 392 l 606 392 l 606 310 l 361 81 b 314 65 349 69 328 65 b 264 117 297 65 264 75 z "},"b":{"ha":853,"x_min":0,"x_max":0,"o":"m 557 -10 b 728 176 665 -10 728 64 l 728 479 b 567 660 728 578 685 660 b 469 638 538 660 503 651 l 286 550 l 286 1003 b 249 1042 286 1025 271 1042 l 104 1042 l 104 968 l 196 968 b 210 954 204 968 210 963 l 210 0 l 286 0 l 286 150 b 406 50 339 106 385 68 b 557 -10 456 8 510 -10 z m 286 467 b 500 568 350 497 429 535 b 567 583 528 579 547 583 b 650 479 625 583 650 547 l 650 176 b 557 67 650 100 615 67 b 456 110 524 67 493 78 b 286 251 428 133 357 190 z "},"c":{"ha":736,"x_min":0,"x_max":0,"o":"m 276 -8 b 444 64 340 -8 399 15 b 544 188 471 92 507 139 l 494 233 b 389 111 457 186 415 138 b 276 64 354 76 322 64 b 200 153 231 64 200 96 l 201 464 b 311 588 201 551 236 588 l 456 588 b 553 515 524 588 540 564 l 632 525 b 469 661 613 617 582 661 l 297 661 b 125 464 185 661 125 592 l 125 146 b 276 -8 125 49 199 -8 z "},"d":{"ha":853,"x_min":0,"x_max":0,"o":"m 296 -10 b 447 50 343 -10 397 8 b 567 150 468 68 514 106 l 567 39 b 604 0 567 17 582 0 l 749 0 l 749 74 l 657 74 b 643 88 649 74 643 79 l 643 953 b 657 967 643 961 649 967 l 721 967 l 721 1042 l 488 1042 l 488 967 l 553 967 b 567 953 561 967 567 961 l 567 550 l 383 638 b 286 660 350 651 315 660 b 125 479 168 660 125 578 l 125 176 b 296 -10 125 64 188 -10 z m 203 176 l 203 479 b 286 583 203 547 228 583 b 353 568 306 583 325 579 b 567 467 424 535 503 497 l 567 251 b 397 110 496 190 425 133 b 296 67 360 78 329 67 b 203 176 238 67 203 100 z "},"e":{"ha":719,"x_min":0,"x_max":0,"o":"m 276 -8 b 403 51 321 -8 368 10 l 479 143 l 421 192 b 344 101 392 156 363 121 b 276 67 322 75 303 67 b 200 149 231 67 200 92 l 201 311 b 215 325 201 321 207 325 l 601 325 b 615 339 610 325 615 331 l 615 474 b 428 658 615 601 557 658 l 311 658 b 125 461 185 658 125 589 l 125 149 b 276 -8 125 51 199 -8 z m 201 415 l 201 461 b 311 585 201 549 233 585 l 428 585 b 540 469 514 585 540 557 l 540 415 b 526 401 540 407 535 401 l 215 401 b 201 415 207 401 201 407 z "},"f":{"ha":668,"x_min":0,"x_max":0,"o":"m 104 0 l 504 0 l 504 74 l 351 74 b 338 88 343 74 338 79 l 338 565 b 351 579 338 574 343 579 l 504 579 l 504 653 l 351 653 b 338 667 343 653 338 658 l 338 904 b 400 968 338 943 361 968 l 564 968 l 564 1042 l 400 1042 b 261 904 321 1042 261 983 l 261 667 b 247 653 261 658 256 653 l 104 653 l 104 579 l 247 579 b 261 565 256 579 261 574 l 261 88 b 247 74 261 79 256 74 l 104 74 z "},"g":{"ha":776,"x_min":0,"x_max":0,"o":"m 281 -286 l 500 -286 b 656 -124 583 -286 656 -212 l 656 -76 b 500 85 656 10 596 85 l 351 85 b 247 136 296 85 253 89 l 326 215 l 504 215 b 658 378 592 215 658 289 l 658 500 b 650 551 658 517 656 535 b 749 688 706 574 744 625 l 683 701 b 610 618 669 644 653 626 b 504 663 582 647 544 663 l 283 663 b 128 500 189 663 128 586 l 128 378 b 226 224 128 307 164 246 b 185 183 211 210 197 196 b 169 144 172 171 168 158 b 351 8 174 19 286 8 l 500 8 b 579 -76 554 8 579 -21 l 579 -124 b 500 -210 579 -176 547 -210 l 281 -210 b 203 -103 225 -210 194 -168 l 126 -103 b 281 -286 115 -208 188 -286 z m 204 378 l 204 500 b 283 589 204 551 236 589 l 504 589 b 582 500 551 589 582 553 l 582 378 b 504 289 582 325 551 289 l 283 289 b 204 378 233 289 204 324 z "},"h":{"ha":900,"x_min":0,"x_max":0,"o":"m 635 476 l 635 0 l 713 0 l 713 476 b 390 603 713 669 525 714 b 269 494 369 583 322 542 l 269 994 b 231 1033 269 1017 253 1033 l 104 1033 l 104 960 l 179 960 b 193 946 188 960 193 956 l 194 0 l 269 0 l 269 394 b 440 543 342 458 413 519 b 635 476 528 617 635 601 z "},"i":{"ha":532,"x_min":0,"x_max":0,"o":"m 104 0 l 449 0 l 449 74 l 331 74 b 317 88 322 74 317 79 l 317 625 b 289 653 317 643 307 653 l 107 653 l 107 579 l 224 579 b 238 565 232 579 238 574 l 238 88 b 224 74 238 79 232 74 l 104 74 z m 188 1000 b 239 949 188 972 211 949 b 290 1000 267 949 290 972 b 239 1051 290 1028 267 1051 b 188 1000 211 1051 188 1028 z "},"j":{"ha":608,"x_min":0,"x_max":0,"o":"m 104 -278 l 282 -278 b 421 -140 361 -278 421 -219 l 421 625 b 393 653 421 643 411 653 l 192 653 l 192 579 l 331 579 b 344 565 339 579 344 574 l 344 -140 b 282 -204 344 -179 321 -204 l 104 -204 z m 299 1000 b 350 949 299 972 322 949 b 401 1000 378 949 401 972 b 350 1051 401 1028 378 1051 b 299 1000 322 1051 299 1028 z "},"k":{"ha":833,"x_min":0,"x_max":0,"o":"m 104 0 l 386 0 l 386 75 l 296 75 b 282 89 288 75 282 81 l 282 235 l 365 326 l 604 1 l 729 1 l 729 76 l 653 76 l 424 388 l 599 578 l 692 578 l 692 653 l 394 653 l 394 578 l 488 578 l 282 356 l 282 1028 b 268 1042 282 1036 276 1042 l 104 1042 l 104 968 l 192 968 b 206 954 200 968 206 963 l 206 89 b 192 75 206 81 200 75 l 104 75 z "},"l":{"ha":497,"x_min":0,"x_max":0,"o":"m 104 0 l 393 0 l 393 74 l 301 74 b 289 89 294 74 289 81 l 289 1024 b 271 1042 289 1033 282 1042 l 107 1042 l 107 968 l 194 968 b 210 956 203 968 210 963 l 210 89 b 194 74 210 81 203 74 l 104 74 z "},"m":{"ha":1415,"x_min":0,"x_max":0,"o":"m 193 565 l 194 0 l 269 0 l 269 344 b 482 543 350 424 446 514 b 676 476 569 617 676 601 l 676 0 l 754 0 l 754 356 b 956 543 832 432 921 515 b 1150 476 1043 617 1150 601 l 1150 0 l 1228 0 l 1228 476 b 907 601 1228 669 1040 714 b 754 456 879 579 817 517 l 754 476 b 432 603 754 669 567 714 b 269 444 404 578 336 510 l 269 625 b 242 653 269 643 260 653 l 104 653 l 104 579 l 179 579 b 193 565 188 579 193 575 z "},"n":{"ha":900,"x_min":0,"x_max":0,"o":"m 635 476 l 635 0 l 713 0 l 713 476 b 390 603 713 669 525 714 b 269 494 369 583 322 542 l 269 625 b 242 653 269 643 260 653 l 104 653 l 104 579 l 179 579 b 193 565 188 579 193 575 l 194 0 l 269 0 l 269 394 b 440 543 342 458 413 519 b 635 476 528 617 635 601 z "},"o":{"ha":756,"x_min":0,"x_max":0,"o":"m 285 -7 l 471 -7 b 631 153 561 -7 631 64 l 631 500 b 471 660 631 589 561 660 l 285 660 b 125 500 196 660 125 589 l 125 153 b 285 -7 125 64 196 -7 z m 201 153 l 201 500 b 285 586 201 550 235 586 l 471 586 b 554 500 521 586 554 550 l 554 153 b 471 68 554 103 522 68 l 285 68 b 201 153 235 68 201 103 z "},"p":{"ha":854,"x_min":0,"x_max":0,"o":"m 568 -7 b 729 174 686 -7 729 75 l 729 476 b 558 663 729 589 667 663 b 407 603 511 663 457 644 b 288 503 386 585 340 547 l 288 614 b 250 653 288 636 272 653 l 106 653 l 106 579 l 197 579 b 211 565 206 579 211 574 l 211 -190 b 197 -204 211 -199 206 -204 l 133 -204 l 133 -278 l 367 -278 l 367 -204 l 301 -204 b 288 -190 293 -204 288 -199 l 288 103 l 471 15 b 568 -7 504 1 539 -7 z m 288 186 l 288 401 b 457 543 358 463 429 519 b 558 586 494 575 525 586 b 651 476 617 586 651 553 l 651 174 b 568 69 651 106 626 69 b 501 85 549 69 529 74 b 288 186 431 118 351 156 z "},"q":{"ha":853,"x_min":0,"x_max":0,"o":"m 286 -7 b 383 15 315 -7 350 1 l 567 103 l 567 -239 b 604 -278 567 -261 582 -278 l 749 -278 l 749 -204 l 657 -204 b 643 -190 649 -204 643 -199 l 643 653 l 567 653 l 567 503 b 447 603 514 547 468 585 b 296 663 397 644 343 663 b 125 476 188 663 125 589 l 125 174 b 286 -7 125 75 168 -7 z m 203 174 l 203 476 b 296 586 203 553 238 586 b 397 543 329 586 360 575 b 567 401 425 519 496 463 l 567 186 b 353 85 503 156 424 118 b 286 69 325 74 306 69 b 203 174 228 69 203 106 z "},"r":{"ha":838,"x_min":0,"x_max":0,"o":"m 119 0 l 497 0 l 497 74 l 353 74 b 339 88 344 74 339 79 l 339 421 b 485 547 401 476 460 526 b 667 543 554 606 638 608 l 733 583 b 435 607 679 686 540 694 b 339 521 418 590 382 558 l 339 614 b 300 653 339 636 322 653 l 104 653 l 104 579 l 249 579 b 263 565 257 579 263 574 l 263 88 b 249 74 263 79 257 74 l 119 74 z "},"s":{"ha":751,"x_min":0,"x_max":0,"o":"m 132 0 l 444 0 b 626 185 532 0 626 82 b 444 379 626 288 563 374 l 313 385 b 200 490 235 388 200 425 b 296 579 200 540 244 579 l 518 579 l 518 656 l 296 656 b 125 486 210 656 125 582 b 313 307 125 358 222 310 l 444 303 b 549 185 503 301 549 250 b 444 76 549 125 501 76 l 132 76 z "},"t":{"ha":596,"x_min":0,"x_max":0,"o":"m 365 -8 b 492 51 410 -8 457 10 l 436 96 b 368 61 414 69 394 61 b 292 143 322 61 290 86 l 293 565 b 307 579 293 575 299 579 l 444 579 l 444 653 l 307 653 b 293 667 299 653 293 658 l 293 803 l 217 803 l 217 667 b 203 653 217 658 211 653 l 104 653 l 104 579 l 203 579 b 217 565 211 579 217 574 l 217 143 b 365 -8 217 46 288 -8 z "},"u":{"ha":900,"x_min":0,"x_max":0,"o":"m 631 653 l 631 258 b 460 110 558 194 488 133 b 265 176 372 36 265 51 l 265 653 l 188 653 l 188 176 b 510 50 188 -17 375 -61 b 631 158 531 69 578 111 l 631 39 b 669 0 631 17 647 0 l 796 0 l 796 74 l 721 74 b 707 88 713 74 707 78 l 706 653 z "},"v":{"ha":864,"x_min":0,"x_max":0,"o":"m 364 -6 l 689 579 l 760 579 l 760 653 l 532 653 l 532 579 l 607 579 l 340 117 l 236 579 l 310 579 l 310 653 l 82 653 l 82 579 l 160 579 l 283 0 z "},"w":{"ha":1197,"x_min":0,"x_max":0,"o":"m 793 -6 l 1035 579 l 1093 579 l 1093 653 l 865 653 l 865 579 l 953 579 l 758 117 l 619 544 l 542 549 l 326 117 l 235 579 l 310 579 l 310 653 l 82 653 l 82 579 l 158 579 l 269 0 l 350 -6 l 572 449 l 710 0 z "},"x":{"ha":921,"x_min":0,"x_max":0,"o":"m 631 0 l 796 0 l 796 74 l 679 74 l 519 326 l 674 579 l 776 579 l 776 653 l 625 653 l 461 382 l 296 653 l 144 653 l 144 579 l 247 579 l 401 326 l 242 74 l 125 74 l 125 0 l 290 0 l 461 272 z "},"y":{"ha":896,"x_min":0,"x_max":0,"o":"m 214 -278 l 531 -278 b 710 -72 624 -278 710 -207 l 710 565 b 724 579 710 574 715 579 l 771 579 l 771 653 l 556 653 l 556 579 l 619 579 b 633 565 628 579 633 574 l 633 440 l 393 100 b 325 65 374 72 353 65 b 244 168 278 65 244 93 l 244 565 b 258 579 244 574 250 579 l 317 579 l 317 653 l 104 653 l 104 579 l 153 579 b 167 565 161 579 167 574 l 167 168 b 325 -11 167 44 244 -11 b 454 56 371 -11 421 8 l 633 308 l 633 -72 b 531 -204 633 -165 588 -204 l 214 -204 z "},"z":{"ha":729,"x_min":0,"x_max":0,"o":"m 156 0 l 576 0 b 604 28 594 0 604 10 l 604 171 l 528 171 l 528 83 b 514 69 528 75 522 69 l 222 69 l 582 599 l 547 653 l 161 653 b 133 625 143 653 133 643 l 133 499 l 210 499 l 210 571 b 224 585 210 579 215 585 l 486 585 l 125 58 z "},"Á":{"ha":1142,"x_min":0,"x_max":0,"o":"m 76 0 l 429 0 l 429 74 l 269 74 l 426 356 l 871 356 l 932 74 l 803 74 l 803 0 l 1114 0 l 1114 74 l 1010 74 l 804 1042 l 722 1047 l 176 74 l 76 74 z m 467 429 l 746 931 l 856 429 z m 688 1175 l 742 1133 l 865 1282 l 811 1324 z "},"Â":{"ha":1142,"x_min":0,"x_max":0,"o":"m 76 0 l 429 0 l 429 74 l 269 74 l 426 356 l 871 356 l 932 74 l 803 74 l 803 0 l 1114 0 l 1114 74 l 1010 74 l 804 1042 l 722 1047 l 176 74 l 76 74 z m 467 429 l 746 931 l 856 429 z m 574 1200 l 617 1154 l 760 1283 l 763 1283 l 907 1154 l 950 1200 l 789 1353 l 739 1353 z "},"Ä":{"ha":1142,"x_min":0,"x_max":0,"o":"m 76 0 l 429 0 l 429 74 l 269 74 l 426 356 l 871 356 l 932 74 l 803 74 l 803 0 l 1114 0 l 1114 74 l 1010 74 l 804 1042 l 722 1047 l 176 74 l 76 74 z m 467 429 l 746 931 l 856 429 z m 579 1261 b 636 1206 579 1228 606 1206 b 693 1261 667 1206 693 1228 b 636 1315 693 1293 667 1315 b 579 1261 606 1315 579 1293 z m 831 1261 b 888 1206 831 1228 857 1206 b 944 1261 918 1206 944 1228 b 888 1315 944 1293 918 1315 b 831 1261 857 1315 831 1293 z "},"À":{"ha":1142,"x_min":0,"x_max":0,"o":"m 76 0 l 429 0 l 429 74 l 269 74 l 426 356 l 871 356 l 932 74 l 803 74 l 803 0 l 1114 0 l 1114 74 l 1010 74 l 804 1042 l 722 1047 l 176 74 l 76 74 z m 467 429 l 746 931 l 856 429 z m 660 1296 l 783 1147 l 838 1189 l 714 1338 z "},"Æ":{"ha":1304,"x_min":0,"x_max":0,"o":"m 14 0 l 367 0 l 367 74 l 207 74 l 364 356 l 742 356 l 742 75 l 633 75 l 633 0 l 1290 0 l 1290 75 l 818 75 l 818 547 l 1236 547 l 1236 621 l 818 621 l 818 967 l 1290 967 l 1290 1042 l 742 1042 l 660 1047 l 114 74 l 14 74 z m 404 429 l 683 931 l 703 967 l 742 967 l 742 429 z "},"Ć":{"ha":865,"x_min":0,"x_max":0,"o":"m 643 0 l 761 0 b 789 28 779 0 789 10 l 789 200 l 715 200 l 715 92 b 701 78 715 83 710 78 l 643 78 b 154 664 392 78 154 385 l 154 701 b 401 964 154 851 251 964 l 701 964 b 715 950 710 964 715 958 l 715 842 l 789 842 l 789 1014 b 761 1042 789 1032 779 1042 l 401 1042 b 76 701 190 1042 76 888 l 76 664 b 643 0 76 349 313 0 z m 408 1175 l 463 1133 l 586 1282 l 532 1324 z "},"Č":{"ha":865,"x_min":0,"x_max":0,"o":"m 643 0 l 761 0 b 789 28 779 0 789 10 l 789 200 l 715 200 l 715 92 b 701 78 715 83 710 78 l 643 78 b 154 664 392 78 154 385 l 154 701 b 401 964 154 851 251 964 l 701 964 b 715 950 710 964 715 958 l 715 842 l 789 842 l 789 1014 b 761 1042 789 1032 779 1042 l 401 1042 b 76 701 190 1042 76 888 l 76 664 b 643 0 76 349 313 0 z m 294 1313 l 460 1160 l 510 1160 l 671 1313 l 628 1358 l 483 1229 l 481 1229 l 338 1358 z "},"Ç":{"ha":865,"x_min":0,"x_max":0,"o":"m 643 0 l 761 0 b 789 28 779 0 789 10 l 789 200 l 715 200 l 715 92 b 701 78 715 83 710 78 l 643 78 b 154 664 392 78 154 385 l 154 701 b 401 964 154 851 251 964 l 701 964 b 715 950 710 964 715 958 l 715 842 l 789 842 l 789 1014 b 761 1042 789 1032 779 1042 l 401 1042 b 76 701 190 1042 76 888 l 76 664 b 397 69 76 435 201 188 l 351 -96 l 403 -137 l 501 -136 b 558 -190 540 -136 558 -158 l 558 -192 b 501 -240 558 -211 535 -240 l 428 -240 b 369 -217 414 -240 385 -231 l 331 -278 b 428 -314 350 -293 396 -314 l 501 -314 b 632 -192 572 -314 632 -249 l 632 -190 b 501 -62 632 -117 590 -62 l 429 -62 l 464 36 b 643 0 519 13 579 0 z "},"Ď":{"ha":924,"x_min":0,"x_max":0,"o":"m 76 0 l 288 0 b 854 664 618 0 854 349 l 854 701 b 529 1042 854 888 740 1042 l 76 1042 l 76 965 l 160 965 b 174 951 168 965 174 960 l 174 90 b 160 76 174 82 168 76 l 76 76 z m 139 1300 l 304 1147 l 354 1147 l 515 1300 l 472 1346 l 328 1217 l 325 1217 l 182 1346 z m 251 92 l 251 950 b 265 964 251 958 257 964 l 529 964 b 776 701 679 964 776 851 l 776 664 b 288 78 776 385 539 78 l 265 78 b 251 92 257 78 251 83 z "},"É":{"ha":850,"x_min":0,"x_max":0,"o":"m 76 0 l 642 0 b 671 13 651 1 661 4 l 774 101 l 726 158 l 628 75 l 275 75 b 261 89 267 75 261 81 l 261 533 b 275 547 261 542 267 547 l 679 547 l 679 621 l 275 621 b 261 635 267 621 261 626 l 261 953 b 275 967 261 961 267 967 l 733 967 l 733 1042 l 76 1042 l 76 967 l 171 967 b 185 953 179 967 185 961 l 185 89 b 171 75 185 81 179 75 l 76 75 z m 347 1175 l 401 1133 l 525 1282 l 471 1324 z "},"Ě":{"ha":850,"x_min":0,"x_max":0,"o":"m 76 0 l 642 0 b 671 13 651 1 661 4 l 774 101 l 726 158 l 628 75 l 275 75 b 261 89 267 75 261 81 l 261 533 b 275 547 261 542 267 547 l 679 547 l 679 621 l 275 621 b 261 635 267 621 261 626 l 261 953 b 275 967 261 961 267 967 l 733 967 l 733 1042 l 76 1042 l 76 967 l 171 967 b 185 953 179 967 185 961 l 185 89 b 171 75 185 81 179 75 l 76 75 z m 233 1313 l 399 1160 l 449 1160 l 610 1313 l 567 1358 l 422 1229 l 419 1229 l 276 1358 z "},"Ê":{"ha":850,"x_min":0,"x_max":0,"o":"m 76 0 l 642 0 b 671 13 651 1 661 4 l 774 101 l 726 158 l 628 75 l 275 75 b 261 89 267 75 261 81 l 261 533 b 275 547 261 542 267 547 l 679 547 l 679 621 l 275 621 b 261 635 267 621 261 626 l 261 953 b 275 967 261 961 267 967 l 733 967 l 733 1042 l 76 1042 l 76 967 l 171 967 b 185 953 179 967 185 961 l 185 89 b 171 75 185 81 179 75 l 76 75 z m 233 1200 l 276 1154 l 419 1283 l 422 1283 l 567 1154 l 610 1200 l 449 1353 l 399 1353 z "},"Ë":{"ha":850,"x_min":0,"x_max":0,"o":"m 76 0 l 642 0 b 671 13 651 1 661 4 l 774 101 l 726 158 l 628 75 l 275 75 b 261 89 267 75 261 81 l 261 533 b 275 547 261 542 267 547 l 679 547 l 679 621 l 275 621 b 261 635 267 621 261 626 l 261 953 b 275 967 261 961 267 967 l 733 967 l 733 1042 l 76 1042 l 76 967 l 171 967 b 185 953 179 967 185 961 l 185 89 b 171 75 185 81 179 75 l 76 75 z m 239 1261 b 296 1206 239 1228 265 1206 b 353 1261 326 1206 353 1228 b 296 1315 353 1293 326 1315 b 239 1261 265 1315 239 1293 z m 490 1261 b 547 1206 490 1228 517 1206 b 604 1261 578 1206 604 1228 b 547 1315 604 1293 578 1315 b 490 1261 517 1315 490 1293 z "},"È":{"ha":850,"x_min":0,"x_max":0,"o":"m 76 0 l 642 0 b 671 13 651 1 661 4 l 774 101 l 726 158 l 628 75 l 275 75 b 261 89 267 75 261 81 l 261 533 b 275 547 261 542 267 547 l 679 547 l 679 621 l 275 621 b 261 635 267 621 261 626 l 261 953 b 275 967 261 961 267 967 l 733 967 l 733 1042 l 76 1042 l 76 967 l 171 967 b 185 953 179 967 185 961 l 185 89 b 171 75 185 81 179 75 l 76 75 z m 319 1296 l 443 1147 l 497 1189 l 374 1338 z "},"Í":{"ha":529,"x_min":0,"x_max":0,"o":"m 76 0 l 453 0 l 453 75 l 317 75 b 303 89 308 75 303 81 l 303 953 b 317 967 303 961 308 967 l 453 967 l 453 1042 l 76 1042 l 76 967 l 213 967 b 226 953 221 967 226 961 l 226 89 b 213 75 226 81 221 75 l 76 75 z m 190 1175 l 244 1133 l 368 1282 l 314 1324 z "},"Î":{"ha":529,"x_min":0,"x_max":0,"o":"m 76 0 l 453 0 l 453 75 l 317 75 b 303 89 308 75 303 81 l 303 953 b 317 967 303 961 308 967 l 453 967 l 453 1042 l 76 1042 l 76 967 l 213 967 b 226 953 221 967 226 961 l 226 89 b 213 75 226 81 221 75 l 76 75 z m 76 1200 l 119 1154 l 263 1283 l 265 1283 l 410 1154 l 453 1200 l 292 1353 l 242 1353 z "},"Ï":{"ha":529,"x_min":0,"x_max":0,"o":"m 76 0 l 453 0 l 453 75 l 317 75 b 303 89 308 75 303 81 l 303 953 b 317 967 303 961 308 967 l 453 967 l 453 1042 l 76 1042 l 76 967 l 213 967 b 226 953 221 967 226 961 l 226 89 b 213 75 226 81 221 75 l 76 75 z m 82 1261 b 139 1206 82 1228 108 1206 b 196 1261 169 1206 196 1228 b 139 1315 196 1293 169 1315 b 82 1261 108 1315 82 1293 z m 333 1261 b 390 1206 333 1228 360 1206 b 447 1261 421 1206 447 1228 b 390 1315 447 1293 421 1315 b 333 1261 360 1315 333 1293 z "},"Ì":{"ha":529,"x_min":0,"x_max":0,"o":"m 76 0 l 453 0 l 453 75 l 317 75 b 303 89 308 75 303 81 l 303 953 b 317 967 303 961 308 967 l 453 967 l 453 1042 l 76 1042 l 76 967 l 213 967 b 226 953 221 967 226 961 l 226 89 b 213 75 226 81 221 75 l 76 75 z m 163 1296 l 286 1147 l 340 1189 l 217 1338 z "},"Ĺ":{"ha":831,"x_min":0,"x_max":0,"o":"m 76 0 l 617 0 b 651 13 629 0 640 3 l 754 101 l 707 158 l 608 75 l 261 75 b 247 89 253 75 247 81 l 247 953 b 261 967 247 961 253 967 l 336 967 l 336 1042 l 76 1042 l 76 967 l 157 967 b 171 953 165 967 171 961 l 171 89 b 157 75 171 81 165 75 l 76 75 z m 347 1175 l 401 1133 l 525 1282 l 471 1324 z "},"Ń":{"ha":1107,"x_min":0,"x_max":0,"o":"m 76 0 l 353 0 l 353 75 l 257 75 b 243 89 249 75 243 81 l 243 956 l 799 0 l 921 0 b 949 28 939 0 949 10 l 950 954 b 964 968 950 964 956 968 l 1031 968 l 1031 1042 l 767 1042 l 767 968 l 858 968 b 872 954 867 968 872 964 l 874 78 l 846 78 l 288 1042 l 76 1042 l 76 967 l 151 967 b 165 953 160 967 165 963 l 167 89 b 153 75 167 81 161 75 l 76 75 z m 478 1175 l 532 1133 l 656 1282 l 601 1324 z "},"Ň":{"ha":1107,"x_min":0,"x_max":0,"o":"m 76 0 l 353 0 l 353 75 l 257 75 b 243 89 249 75 243 81 l 243 956 l 799 0 l 921 0 b 949 28 939 0 949 10 l 950 954 b 964 968 950 964 956 968 l 1031 968 l 1031 1042 l 767 1042 l 767 968 l 858 968 b 872 954 867 968 872 964 l 874 78 l 846 78 l 288 1042 l 76 1042 l 76 967 l 151 967 b 165 953 160 967 165 963 l 167 89 b 153 75 167 81 161 75 l 76 75 z m 364 1313 l 529 1160 l 579 1160 l 740 1313 l 697 1358 l 553 1229 l 550 1229 l 407 1358 z "},"Ó":{"ha":1000,"x_min":0,"x_max":0,"o":"m 361 0 l 638 0 b 875 246 774 0 875 110 l 875 794 b 638 1042 875 938 772 1042 l 361 1042 b 125 794 226 1042 125 938 l 125 246 b 361 0 125 110 225 0 z m 201 246 l 201 794 b 361 965 201 894 267 965 l 638 965 b 799 794 731 965 799 894 l 799 246 b 638 76 799 146 732 76 l 361 76 b 201 246 267 76 201 146 z m 425 1175 l 479 1133 l 603 1282 l 549 1324 z "},"Ô":{"ha":1000,"x_min":0,"x_max":0,"o":"m 361 0 l 638 0 b 875 246 774 0 875 110 l 875 794 b 638 1042 875 938 772 1042 l 361 1042 b 125 794 226 1042 125 938 l 125 246 b 361 0 125 110 225 0 z m 201 246 l 201 794 b 361 965 201 894 267 965 l 638 965 b 799 794 731 965 799 894 l 799 246 b 638 76 799 146 732 76 l 361 76 b 201 246 267 76 201 146 z m 311 1200 l 354 1154 l 497 1283 l 500 1283 l 644 1154 l 688 1200 l 526 1353 l 476 1353 z "},"Ö":{"ha":1000,"x_min":0,"x_max":0,"o":"m 361 0 l 638 0 b 875 246 774 0 875 110 l 875 794 b 638 1042 875 938 772 1042 l 361 1042 b 125 794 226 1042 125 938 l 125 246 b 361 0 125 110 225 0 z m 201 246 l 201 794 b 361 965 201 894 267 965 l 638 965 b 799 794 731 965 799 894 l 799 246 b 638 76 799 146 732 76 l 361 76 b 201 246 267 76 201 146 z m 317 1261 b 374 1206 317 1228 343 1206 b 431 1261 404 1206 431 1228 b 374 1315 431 1293 404 1315 b 317 1261 343 1315 317 1293 z m 568 1261 b 625 1206 568 1228 594 1206 b 682 1261 656 1206 682 1228 b 625 1315 682 1293 656 1315 b 568 1261 594 1315 568 1293 z "},"Ò":{"ha":1000,"x_min":0,"x_max":0,"o":"m 361 0 l 638 0 b 875 246 774 0 875 110 l 875 794 b 638 1042 875 938 772 1042 l 361 1042 b 125 794 226 1042 125 938 l 125 246 b 361 0 125 110 225 0 z m 201 246 l 201 794 b 361 965 201 894 267 965 l 638 965 b 799 794 731 965 799 894 l 799 246 b 638 76 799 146 732 76 l 361 76 b 201 246 267 76 201 146 z m 397 1296 l 521 1147 l 575 1189 l 451 1338 z "},"Œ":{"ha":1207,"x_min":0,"x_max":0,"o":"m 236 0 l 1124 0 l 1124 75 l 651 75 l 651 547 l 1069 547 l 1069 621 l 651 621 l 651 967 l 1124 967 l 1124 1042 l 236 1042 b 0 794 101 1042 0 938 l 0 246 b 236 0 0 110 100 0 z m 76 246 l 76 794 b 236 965 76 894 142 965 l 575 967 l 575 75 l 236 76 b 76 246 142 76 76 146 z "},"Ŕ":{"ha":882,"x_min":0,"x_max":0,"o":"m 101 0 l 325 0 l 325 75 l 264 75 b 250 89 256 75 250 81 l 250 415 l 414 488 l 672 0 l 813 0 l 813 75 l 719 75 l 483 518 l 593 565 b 747 772 686 606 739 668 b 710 940 753 838 733 904 b 497 1042 668 1004 578 1042 l 76 1042 l 76 965 l 160 965 b 174 951 168 965 174 960 l 174 89 b 160 75 174 81 168 75 l 101 75 z m 250 499 l 250 951 b 264 965 250 960 256 965 l 497 965 b 643 899 550 965 614 943 b 668 772 661 872 674 825 b 560 635 660 689 624 663 z m 317 1175 l 371 1133 l 494 1282 l 440 1324 z "},"Ř":{"ha":882,"x_min":0,"x_max":0,"o":"m 101 0 l 325 0 l 325 75 l 264 75 b 250 89 256 75 250 81 l 250 415 l 414 488 l 672 0 l 813 0 l 813 75 l 719 75 l 483 518 l 593 565 b 747 772 686 606 739 668 b 710 940 753 838 733 904 b 497 1042 668 1004 578 1042 l 76 1042 l 76 965 l 160 965 b 174 951 168 965 174 960 l 174 89 b 160 75 174 81 168 75 l 101 75 z m 203 1313 l 368 1160 l 418 1160 l 579 1313 l 536 1358 l 392 1229 l 389 1229 l 246 1358 z m 250 499 l 250 951 b 264 965 250 960 256 965 l 497 965 b 643 899 550 965 614 943 b 668 772 661 872 674 825 b 560 635 660 689 624 663 z "},"Ś":{"ha":947,"x_min":0,"x_max":0,"o":"m 178 0 l 638 0 b 878 260 767 0 878 115 l 878 321 b 636 578 878 467 814 571 l 400 588 b 200 761 268 593 200 640 l 200 786 b 360 965 200 878 264 965 l 660 965 b 674 951 668 965 674 960 l 674 874 l 749 874 l 749 1014 b 721 1042 749 1032 739 1042 l 360 1042 b 125 786 236 1042 125 931 l 125 754 b 401 504 125 567 263 508 l 639 497 b 799 321 743 494 799 428 l 799 260 b 638 76 799 164 732 76 l 239 76 b 225 90 231 76 225 82 l 225 224 l 150 224 l 150 28 b 178 0 150 10 160 0 z m 428 1175 l 482 1133 l 606 1282 l 551 1324 z "},"Š":{"ha":947,"x_min":0,"x_max":0,"o":"m 178 0 l 638 0 b 878 260 767 0 878 115 l 878 321 b 636 578 878 467 814 571 l 400 588 b 200 761 268 593 200 640 l 200 786 b 360 965 200 878 264 965 l 660 965 b 674 951 668 965 674 960 l 674 874 l 749 874 l 749 1014 b 721 1042 749 1032 739 1042 l 360 1042 b 125 786 236 1042 125 931 l 125 754 b 401 504 125 567 263 508 l 639 497 b 799 321 743 494 799 428 l 799 260 b 638 76 799 164 732 76 l 239 76 b 225 90 231 76 225 82 l 225 224 l 150 224 l 150 28 b 178 0 150 10 160 0 z m 314 1313 l 479 1160 l 529 1160 l 690 1313 l 647 1358 l 503 1229 l 500 1229 l 357 1358 z "},"Ş":{"ha":947,"x_min":0,"x_max":0,"o":"m 178 0 l 406 0 l 371 -125 l 422 -167 l 521 -165 b 578 -219 560 -165 578 -187 l 578 -221 b 521 -269 578 -240 554 -269 l 447 -269 b 389 -246 433 -269 404 -260 l 350 -307 b 447 -343 369 -322 415 -343 l 521 -343 b 651 -221 592 -343 651 -278 l 651 -219 b 521 -92 651 -146 610 -92 l 449 -92 l 482 0 l 638 0 b 878 260 767 0 878 115 l 878 321 b 636 578 878 467 814 571 l 400 588 b 200 761 268 593 200 640 l 200 786 b 360 965 200 878 264 965 l 660 965 b 674 951 668 965 674 960 l 674 874 l 749 874 l 749 1014 b 721 1042 749 1032 739 1042 l 360 1042 b 125 786 236 1042 125 931 l 125 754 b 401 504 125 567 263 508 l 639 497 b 799 321 743 494 799 428 l 799 260 b 638 76 799 164 732 76 l 239 76 b 225 90 231 76 225 82 l 225 224 l 150 224 l 150 28 b 178 0 150 10 160 0 z "},"Ť":{"ha":932,"x_min":0,"x_max":0,"o":"m 779 953 l 779 819 l 856 819 l 856 1014 b 828 1042 856 1032 846 1042 l 104 1042 b 76 1014 86 1042 76 1032 l 76 819 l 153 819 l 153 953 b 167 967 153 961 158 967 l 414 967 b 428 953 422 967 428 961 l 428 89 b 414 75 428 81 422 75 l 278 75 l 278 0 l 654 0 l 654 75 l 518 75 b 504 89 510 75 504 81 l 504 953 b 518 967 504 961 510 967 l 765 967 b 779 953 774 967 779 961 z m 278 1313 l 443 1160 l 493 1160 l 654 1313 l 611 1358 l 467 1229 l 464 1229 l 321 1358 z "},"Ú":{"ha":1046,"x_min":0,"x_max":0,"o":"m 433 0 l 608 -1 b 897 300 781 -3 897 86 l 897 951 b 911 965 897 960 903 965 l 969 965 l 969 1042 l 728 1042 l 728 965 l 807 965 b 821 951 815 965 821 960 l 821 300 b 608 75 821 132 728 75 l 433 75 b 226 300 318 75 226 132 l 226 951 b 240 965 226 960 232 965 l 318 965 l 318 1042 l 76 1042 l 76 965 l 136 965 b 150 951 144 965 150 960 l 150 300 b 433 0 150 86 265 1 z m 449 1175 l 503 1133 l 626 1282 l 572 1324 z "},"Û":{"ha":1046,"x_min":0,"x_max":0,"o":"m 433 0 l 608 -1 b 897 300 781 -3 897 86 l 897 951 b 911 965 897 960 903 965 l 969 965 l 969 1042 l 728 1042 l 728 965 l 807 965 b 821 951 815 965 821 960 l 821 300 b 608 75 821 132 728 75 l 433 75 b 226 300 318 75 226 132 l 226 951 b 240 965 226 960 232 965 l 318 965 l 318 1042 l 76 1042 l 76 965 l 136 965 b 150 951 144 965 150 960 l 150 300 b 433 0 150 86 265 1 z m 335 1200 l 378 1154 l 521 1283 l 524 1283 l 668 1154 l 711 1200 l 550 1353 l 500 1353 z "},"Ü":{"ha":1046,"x_min":0,"x_max":0,"o":"m 433 0 l 608 -1 b 897 300 781 -3 897 86 l 897 951 b 911 965 897 960 903 965 l 969 965 l 969 1042 l 728 1042 l 728 965 l 807 965 b 821 951 815 965 821 960 l 821 300 b 608 75 821 132 728 75 l 433 75 b 226 300 318 75 226 132 l 226 951 b 240 965 226 960 232 965 l 318 965 l 318 1042 l 76 1042 l 76 965 l 136 965 b 150 951 144 965 150 960 l 150 300 b 433 0 150 86 265 1 z m 340 1261 b 397 1206 340 1228 367 1206 b 454 1261 428 1206 454 1228 b 397 1315 454 1293 428 1315 b 340 1261 367 1315 340 1293 z m 592 1261 b 649 1206 592 1228 618 1206 b 706 1261 679 1206 706 1228 b 649 1315 706 1293 679 1315 b 592 1261 618 1315 592 1293 z "},"Ù":{"ha":1046,"x_min":0,"x_max":0,"o":"m 433 0 l 608 -1 b 897 300 781 -3 897 86 l 897 951 b 911 965 897 960 903 965 l 969 965 l 969 1042 l 728 1042 l 728 965 l 807 965 b 821 951 815 965 821 960 l 821 300 b 608 75 821 132 728 75 l 433 75 b 226 300 318 75 226 132 l 226 951 b 240 965 226 960 232 965 l 318 965 l 318 1042 l 76 1042 l 76 965 l 136 965 b 150 951 144 965 150 960 l 150 300 b 433 0 150 86 265 1 z m 421 1296 l 544 1147 l 599 1189 l 475 1338 z "},"Ẃ":{"ha":1507,"x_min":0,"x_max":0,"o":"m 178 0 l 264 0 l 704 701 l 990 0 l 1067 0 l 1332 968 l 1431 968 l 1431 1042 l 1029 1042 l 1029 968 l 1253 968 l 1026 136 l 740 813 l 688 813 l 254 124 l 254 968 l 450 968 l 450 1042 l 76 1042 l 76 968 l 178 968 z m 668 1175 l 722 1133 l 846 1282 l 792 1324 z "},"Ŵ":{"ha":1507,"x_min":0,"x_max":0,"o":"m 178 0 l 264 0 l 704 701 l 990 0 l 1067 0 l 1332 968 l 1431 968 l 1431 1042 l 1029 1042 l 1029 968 l 1253 968 l 1026 136 l 740 813 l 688 813 l 254 124 l 254 968 l 450 968 l 450 1042 l 76 1042 l 76 968 l 178 968 z m 554 1200 l 597 1154 l 740 1283 l 743 1283 l 888 1154 l 931 1200 l 769 1353 l 719 1353 z "},"Ẅ":{"ha":1507,"x_min":0,"x_max":0,"o":"m 178 0 l 264 0 l 704 701 l 990 0 l 1067 0 l 1332 968 l 1431 968 l 1431 1042 l 1029 1042 l 1029 968 l 1253 968 l 1026 136 l 740 813 l 688 813 l 254 124 l 254 968 l 450 968 l 450 1042 l 76 1042 l 76 968 l 178 968 z m 560 1261 b 617 1206 560 1228 586 1206 b 674 1261 647 1206 674 1228 b 617 1315 674 1293 647 1315 b 560 1261 586 1315 560 1293 z m 811 1261 b 868 1206 811 1228 838 1206 b 925 1261 899 1206 925 1228 b 868 1315 925 1293 899 1315 b 811 1261 838 1315 811 1293 z "},"Ẁ":{"ha":1507,"x_min":0,"x_max":0,"o":"m 178 0 l 264 0 l 704 701 l 990 0 l 1067 0 l 1332 968 l 1431 968 l 1431 1042 l 1029 1042 l 1029 968 l 1253 968 l 1026 136 l 740 813 l 688 813 l 254 124 l 254 968 l 450 968 l 450 1042 l 76 1042 l 76 968 l 178 968 z m 640 1296 l 764 1147 l 818 1189 l 694 1338 z "},"Ý":{"ha":938,"x_min":0,"x_max":0,"o":"m 458 363 l 786 968 l 861 968 l 861 1042 l 589 1042 l 589 968 l 697 968 l 426 451 l 235 968 l 303 968 l 303 1042 l 76 1042 l 76 968 l 157 968 l 382 363 l 382 74 l 282 74 l 282 0 l 554 0 l 554 74 l 458 74 z m 374 1175 l 428 1133 l 551 1282 l 497 1324 z "},"Ŷ":{"ha":938,"x_min":0,"x_max":0,"o":"m 458 363 l 786 968 l 861 968 l 861 1042 l 589 1042 l 589 968 l 697 968 l 426 451 l 235 968 l 303 968 l 303 1042 l 76 1042 l 76 968 l 157 968 l 382 363 l 382 74 l 282 74 l 282 0 l 554 0 l 554 74 l 458 74 z m 260 1200 l 303 1154 l 446 1283 l 449 1283 l 593 1154 l 636 1200 l 475 1353 l 425 1353 z "},"Ÿ":{"ha":938,"x_min":0,"x_max":0,"o":"m 458 363 l 786 968 l 861 968 l 861 1042 l 589 1042 l 589 968 l 697 968 l 426 451 l 235 968 l 303 968 l 303 1042 l 76 1042 l 76 968 l 157 968 l 382 363 l 382 74 l 282 74 l 282 0 l 554 0 l 554 74 l 458 74 z m 265 1261 b 322 1206 265 1228 292 1206 b 379 1261 353 1206 379 1228 b 322 1315 379 1293 353 1315 b 265 1261 292 1315 265 1293 z m 517 1261 b 574 1206 517 1228 543 1206 b 631 1261 604 1206 631 1228 b 574 1315 631 1293 604 1315 b 517 1261 543 1315 517 1293 z "},"Ỳ":{"ha":938,"x_min":0,"x_max":0,"o":"m 458 363 l 786 968 l 861 968 l 861 1042 l 589 1042 l 589 968 l 697 968 l 426 451 l 235 968 l 303 968 l 303 1042 l 76 1042 l 76 968 l 157 968 l 382 363 l 382 74 l 282 74 l 282 0 l 554 0 l 554 74 l 458 74 z m 346 1296 l 469 1147 l 524 1189 l 400 1338 z "},"Ź":{"ha":907,"x_min":0,"x_max":0,"o":"m 101 0 l 803 0 b 831 28 821 0 831 10 l 831 225 l 754 225 l 754 92 b 740 78 754 83 749 78 l 190 78 l 817 993 l 786 1042 l 158 1042 b 131 1014 140 1042 131 1032 l 132 814 l 208 814 l 208 951 b 222 965 208 960 214 965 l 697 965 l 76 54 z m 379 1175 l 433 1133 l 557 1282 l 503 1324 z "},"Ž":{"ha":907,"x_min":0,"x_max":0,"o":"m 101 0 l 803 0 b 831 28 821 0 831 10 l 831 225 l 754 225 l 754 92 b 740 78 754 83 749 78 l 190 78 l 817 993 l 786 1042 l 158 1042 b 131 1014 140 1042 131 1032 l 132 814 l 208 814 l 208 951 b 222 965 208 960 214 965 l 697 965 l 76 54 z m 265 1313 l 431 1160 l 481 1160 l 642 1313 l 599 1358 l 454 1229 l 451 1229 l 308 1358 z "},"á":{"ha":869,"x_min":0,"x_max":0,"o":"m 314 -8 b 411 25 353 -8 389 6 l 606 206 l 606 0 l 682 0 l 682 628 b 643 667 682 650 665 667 l 274 667 l 274 593 l 592 593 b 606 579 600 593 606 588 l 606 465 l 331 465 b 188 338 229 465 188 426 l 188 117 b 314 -8 188 31 250 -8 z m 264 117 l 264 338 b 331 392 264 382 275 392 l 606 392 l 606 310 l 361 81 b 314 65 349 69 328 65 b 264 117 297 65 264 75 z m 417 786 l 471 744 l 594 893 l 540 935 z "},"â":{"ha":869,"x_min":0,"x_max":0,"o":"m 314 -8 b 411 25 353 -8 389 6 l 606 206 l 606 0 l 682 0 l 682 628 b 643 667 682 650 665 667 l 274 667 l 274 593 l 592 593 b 606 579 600 593 606 588 l 606 465 l 331 465 b 188 338 229 465 188 426 l 188 117 b 314 -8 188 31 250 -8 z m 264 117 l 264 338 b 331 392 264 382 275 392 l 606 392 l 606 310 l 361 81 b 314 65 349 69 328 65 b 264 117 297 65 264 75 z m 303 811 l 346 765 l 489 894 l 492 894 l 636 765 l 679 811 l 518 964 l 468 964 z "},"ä":{"ha":869,"x_min":0,"x_max":0,"o":"m 314 -8 b 411 25 353 -8 389 6 l 606 206 l 606 0 l 682 0 l 682 628 b 643 667 682 650 665 667 l 274 667 l 274 593 l 592 593 b 606 579 600 593 606 588 l 606 465 l 331 465 b 188 338 229 465 188 426 l 188 117 b 314 -8 188 31 250 -8 z m 264 117 l 264 338 b 331 392 264 382 275 392 l 606 392 l 606 310 l 361 81 b 314 65 349 69 328 65 b 264 117 297 65 264 75 z m 308 872 b 365 817 308 839 335 817 b 422 872 396 817 422 839 b 365 926 422 904 396 926 b 308 872 335 926 308 904 z m 560 872 b 617 817 560 839 586 817 b 674 872 647 817 674 839 b 617 926 674 904 647 926 b 560 872 586 926 560 904 z "},"à":{"ha":869,"x_min":0,"x_max":0,"o":"m 314 -8 b 411 25 353 -8 389 6 l 606 206 l 606 0 l 682 0 l 682 628 b 643 667 682 650 665 667 l 274 667 l 274 593 l 592 593 b 606 579 600 593 606 588 l 606 465 l 331 465 b 188 338 229 465 188 426 l 188 117 b 314 -8 188 31 250 -8 z m 264 117 l 264 338 b 331 392 264 382 275 392 l 606 392 l 606 310 l 361 81 b 314 65 349 69 328 65 b 264 117 297 65 264 75 z m 389 907 l 513 758 l 567 800 l 443 949 z "},"æ":{"ha":993,"x_min":0,"x_max":0,"o":"m 596 -8 b 725 51 640 -8 690 10 l 801 143 l 743 192 b 667 101 714 156 685 121 b 599 67 644 75 625 67 b 522 149 553 67 522 92 l 522 206 l 524 293 l 524 325 l 938 325 l 938 474 b 750 658 938 601 879 658 l 633 658 b 522 632 588 658 550 649 b 483 667 521 651 504 667 l 142 667 l 142 593 l 446 593 l 446 465 l 199 465 b 56 338 97 465 56 426 l 56 107 b 168 -8 56 26 118 -8 b 251 25 197 -8 229 4 l 444 204 l 444 149 b 596 -8 443 51 518 -8 z m 132 107 l 132 338 b 199 392 132 382 143 392 l 446 392 l 446 310 l 201 81 b 168 65 189 69 182 65 b 132 107 151 65 132 71 z m 524 401 l 524 461 b 633 585 524 549 556 585 l 750 585 b 863 469 836 585 863 557 l 863 401 z "},"ć":{"ha":736,"x_min":0,"x_max":0,"o":"m 276 -8 b 444 64 340 -8 399 15 b 544 188 471 92 507 139 l 494 233 b 389 111 457 186 415 138 b 276 64 354 76 322 64 b 200 153 231 64 200 96 l 201 464 b 311 588 201 551 236 588 l 456 588 b 553 515 524 588 540 564 l 632 525 b 469 661 613 617 582 661 l 297 661 b 125 464 185 661 125 592 l 125 146 b 276 -8 125 49 199 -8 z m 310 786 l 364 744 l 488 893 l 433 935 z "},"č":{"ha":736,"x_min":0,"x_max":0,"o":"m 276 -8 b 444 64 340 -8 399 15 b 544 188 471 92 507 139 l 494 233 b 389 111 457 186 415 138 b 276 64 354 76 322 64 b 200 153 231 64 200 96 l 201 464 b 311 588 201 551 236 588 l 456 588 b 553 515 524 588 540 564 l 632 525 b 469 661 613 617 582 661 l 297 661 b 125 464 185 661 125 592 l 125 146 b 276 -8 125 49 199 -8 z m 196 924 l 361 771 l 411 771 l 572 924 l 529 969 l 385 840 l 382 840 l 239 969 z "},"ç":{"ha":736,"x_min":0,"x_max":0,"o":"m 276 -8 l 286 -8 l 253 -129 l 304 -171 l 403 -169 b 460 -224 442 -169 460 -192 l 460 -225 b 403 -274 460 -244 436 -274 l 329 -274 b 271 -250 315 -274 286 -264 l 232 -311 b 329 -347 251 -326 297 -347 l 403 -347 b 533 -225 474 -347 533 -282 l 533 -224 b 403 -96 533 -150 492 -96 l 331 -96 l 368 10 b 444 64 396 22 422 40 b 544 188 471 92 507 139 l 494 233 b 389 111 457 186 415 138 b 276 64 354 76 322 64 b 200 153 231 64 200 96 l 201 464 b 311 588 201 551 236 588 l 456 588 b 553 515 524 588 540 564 l 632 525 b 469 661 613 617 582 661 l 297 661 b 125 464 185 661 125 592 l 125 146 b 276 -8 125 49 199 -8 z "},"é":{"ha":719,"x_min":0,"x_max":0,"o":"m 276 -8 b 403 51 321 -8 368 10 l 479 143 l 421 192 b 344 101 392 156 363 121 b 276 67 322 75 303 67 b 200 149 231 67 200 92 l 201 311 b 215 325 201 321 207 325 l 601 325 b 615 339 610 325 615 331 l 615 474 b 428 658 615 601 557 658 l 311 658 b 125 461 185 658 125 589 l 125 149 b 276 -8 125 51 199 -8 z m 201 415 l 201 461 b 311 585 201 549 233 585 l 428 585 b 540 469 514 585 540 557 l 540 415 b 526 401 540 407 535 401 l 215 401 b 201 415 207 401 201 407 z m 299 786 l 353 744 l 476 893 l 422 935 z "},"ě":{"ha":719,"x_min":0,"x_max":0,"o":"m 276 -8 b 403 51 321 -8 368 10 l 479 143 l 421 192 b 344 101 392 156 363 121 b 276 67 322 75 303 67 b 200 149 231 67 200 92 l 201 311 b 215 325 201 321 207 325 l 601 325 b 615 339 610 325 615 331 l 615 474 b 428 658 615 601 557 658 l 311 658 b 125 461 185 658 125 589 l 125 149 b 276 -8 125 51 199 -8 z m 185 924 l 350 771 l 400 771 l 561 924 l 518 969 l 374 840 l 371 840 l 228 969 z m 201 415 l 201 461 b 311 585 201 549 233 585 l 428 585 b 540 469 514 585 540 557 l 540 415 b 526 401 540 407 535 401 l 215 401 b 201 415 207 401 201 407 z "},"ê":{"ha":719,"x_min":0,"x_max":0,"o":"m 276 -8 b 403 51 321 -8 368 10 l 479 143 l 421 192 b 344 101 392 156 363 121 b 276 67 322 75 303 67 b 200 149 231 67 200 92 l 201 311 b 215 325 201 321 207 325 l 601 325 b 615 339 610 325 615 331 l 615 474 b 428 658 615 601 557 658 l 311 658 b 125 461 185 658 125 589 l 125 149 b 276 -8 125 51 199 -8 z m 185 811 l 228 765 l 371 894 l 374 894 l 518 765 l 561 811 l 400 964 l 350 964 z m 201 415 l 201 461 b 311 585 201 549 233 585 l 428 585 b 540 469 514 585 540 557 l 540 415 b 526 401 540 407 535 401 l 215 401 b 201 415 207 401 201 407 z "},"ë":{"ha":719,"x_min":0,"x_max":0,"o":"m 276 -8 b 403 51 321 -8 368 10 l 479 143 l 421 192 b 344 101 392 156 363 121 b 276 67 322 75 303 67 b 200 149 231 67 200 92 l 201 311 b 215 325 201 321 207 325 l 601 325 b 615 339 610 325 615 331 l 615 474 b 428 658 615 601 557 658 l 311 658 b 125 461 185 658 125 589 l 125 149 b 276 -8 125 51 199 -8 z m 190 872 b 247 817 190 839 217 817 b 304 872 278 817 304 839 b 247 926 304 904 278 926 b 190 872 217 926 190 904 z m 201 415 l 201 461 b 311 585 201 549 233 585 l 428 585 b 540 469 514 585 540 557 l 540 415 b 526 401 540 407 535 401 l 215 401 b 201 415 207 401 201 407 z m 442 872 b 499 817 442 839 468 817 b 556 872 529 817 556 839 b 499 926 556 904 529 926 b 442 872 468 926 442 904 z "},"è":{"ha":719,"x_min":0,"x_max":0,"o":"m 276 -8 b 403 51 321 -8 368 10 l 479 143 l 421 192 b 344 101 392 156 363 121 b 276 67 322 75 303 67 b 200 149 231 67 200 92 l 201 311 b 215 325 201 321 207 325 l 601 325 b 615 339 610 325 615 331 l 615 474 b 428 658 615 601 557 658 l 311 658 b 125 461 185 658 125 589 l 125 149 b 276 -8 125 51 199 -8 z m 201 415 l 201 461 b 311 585 201 549 233 585 l 428 585 b 540 469 514 585 540 557 l 540 415 b 526 401 540 407 535 401 l 215 401 b 201 415 207 401 201 407 z m 271 907 l 394 758 l 449 800 l 325 949 z "},"ı":{"ha":511,"x_min":0,"x_max":0,"o":"m 83 0 l 428 0 l 428 71 l 308 71 b 296 86 301 71 296 78 l 296 635 b 278 653 296 644 289 653 l 86 653 l 86 586 l 201 586 b 217 574 210 586 217 581 l 217 86 b 201 71 217 78 210 71 l 83 71 z "},"í":{"ha":511,"x_min":0,"x_max":0,"o":"m 83 0 l 428 0 l 428 71 l 308 71 b 296 86 301 71 296 78 l 296 635 b 278 653 296 644 289 653 l 86 653 l 86 586 l 201 586 b 217 574 210 586 217 581 l 217 86 b 201 71 217 78 210 71 l 83 71 z m 160 886 l 214 844 l 338 993 l 283 1035 z "},"î":{"ha":511,"x_min":0,"x_max":0,"o":"m 83 0 l 428 0 l 428 71 l 308 71 b 296 86 301 71 296 78 l 296 635 b 278 653 296 644 289 653 l 86 653 l 86 586 l 201 586 b 217 574 210 586 217 581 l 217 86 b 201 71 217 78 210 71 l 83 71 z m 24 906 l 67 860 l 210 989 l 213 989 l 357 860 l 400 906 l 239 1058 l 189 1058 z "},"ï":{"ha":511,"x_min":0,"x_max":0,"o":"m 83 0 l 428 0 l 428 71 l 308 71 b 296 86 301 71 296 78 l 296 635 b 278 653 296 644 289 653 l 86 653 l 86 586 l 201 586 b 217 574 210 586 217 581 l 217 86 b 201 71 217 78 210 71 l 83 71 z m 29 967 b 86 911 29 933 56 911 b 143 967 117 911 143 933 b 86 1021 143 999 117 1021 b 29 967 56 1021 29 999 z m 281 967 b 338 911 281 933 307 911 b 394 967 368 911 394 933 b 338 1021 394 999 368 1021 b 281 967 307 1021 281 999 z "},"ì":{"ha":511,"x_min":0,"x_max":0,"o":"m 83 0 l 428 0 l 428 71 l 308 71 b 296 86 301 71 296 78 l 296 635 b 278 653 296 644 289 653 l 86 653 l 86 586 l 201 586 b 217 574 210 586 217 581 l 217 86 b 201 71 217 78 210 71 l 83 71 z m 110 1001 l 233 853 l 288 894 l 164 1043 z "},"ȷ":{"ha":372,"x_min":0,"x_max":0,"o":"m 0 -278 l 178 -278 b 317 -140 257 -278 317 -219 l 317 654 l 88 654 l 88 579 l 240 579 l 240 -140 b 178 -204 240 -179 217 -204 l 0 -204 z "},"ĺ":{"ha":497,"x_min":0,"x_max":0,"o":"m 104 0 l 393 0 l 393 74 l 301 74 b 289 89 294 74 289 81 l 289 1024 b 271 1042 289 1033 282 1042 l 107 1042 l 107 968 l 194 968 b 210 956 203 968 210 963 l 210 89 b 194 74 210 81 203 74 l 104 74 z m 139 1244 l 193 1203 l 317 1351 l 263 1393 z "},"ń":{"ha":900,"x_min":0,"x_max":0,"o":"m 635 476 l 635 0 l 713 0 l 713 476 b 390 603 713 669 525 714 b 269 494 369 583 322 542 l 269 625 b 242 653 269 643 260 653 l 104 653 l 104 579 l 179 579 b 193 565 188 579 193 575 l 194 0 l 269 0 l 269 394 b 440 543 342 458 413 519 b 635 476 528 617 635 601 z m 354 786 l 408 744 l 532 893 l 478 935 z "},"ň":{"ha":900,"x_min":0,"x_max":0,"o":"m 635 476 l 635 0 l 713 0 l 713 476 b 390 603 713 669 525 714 b 269 494 369 583 322 542 l 269 625 b 242 653 269 643 260 653 l 104 653 l 104 579 l 179 579 b 193 565 188 579 193 575 l 194 0 l 269 0 l 269 394 b 440 543 342 458 413 519 b 635 476 528 617 635 601 z m 240 924 l 406 771 l 456 771 l 617 924 l 574 969 l 429 840 l 426 840 l 283 969 z "},"ó":{"ha":756,"x_min":0,"x_max":0,"o":"m 285 -7 l 471 -7 b 631 153 561 -7 631 64 l 631 500 b 471 660 631 589 561 660 l 285 660 b 125 500 196 660 125 589 l 125 153 b 285 -7 125 64 196 -7 z m 201 153 l 201 500 b 285 586 201 550 235 586 l 471 586 b 554 500 521 586 554 550 l 554 153 b 471 68 554 103 522 68 l 285 68 b 201 153 235 68 201 103 z m 303 786 l 357 744 l 481 893 l 426 935 z "},"ô":{"ha":756,"x_min":0,"x_max":0,"o":"m 285 -7 l 471 -7 b 631 153 561 -7 631 64 l 631 500 b 471 660 631 589 561 660 l 285 660 b 125 500 196 660 125 589 l 125 153 b 285 -7 125 64 196 -7 z m 189 811 l 232 765 l 375 894 l 378 894 l 522 765 l 565 811 l 404 964 l 354 964 z m 201 153 l 201 500 b 285 586 201 550 235 586 l 471 586 b 554 500 521 586 554 550 l 554 153 b 471 68 554 103 522 68 l 285 68 b 201 153 235 68 201 103 z "},"ö":{"ha":756,"x_min":0,"x_max":0,"o":"m 285 -7 l 471 -7 b 631 153 561 -7 631 64 l 631 500 b 471 660 631 589 561 660 l 285 660 b 125 500 196 660 125 589 l 125 153 b 285 -7 125 64 196 -7 z m 194 872 b 251 817 194 839 221 817 b 308 872 282 817 308 839 b 251 926 308 904 282 926 b 194 872 221 926 194 904 z m 201 153 l 201 500 b 285 586 201 550 235 586 l 471 586 b 554 500 521 586 554 550 l 554 153 b 471 68 554 103 522 68 l 285 68 b 201 153 235 68 201 103 z m 446 872 b 503 817 446 839 472 817 b 560 872 533 817 560 839 b 503 926 560 904 533 926 b 446 872 472 926 446 904 z "},"ò":{"ha":756,"x_min":0,"x_max":0,"o":"m 285 -7 l 471 -7 b 631 153 561 -7 631 64 l 631 500 b 471 660 631 589 561 660 l 285 660 b 125 500 196 660 125 589 l 125 153 b 285 -7 125 64 196 -7 z m 201 153 l 201 500 b 285 586 201 550 235 586 l 471 586 b 554 500 521 586 554 550 l 554 153 b 471 68 554 103 522 68 l 285 68 b 201 153 235 68 201 103 z m 275 907 l 399 758 l 453 800 l 329 949 z "},"œ":{"ha":1086,"x_min":0,"x_max":0,"o":"m 243 -7 l 429 -7 b 549 46 478 -7 519 13 b 664 -8 576 11 619 -8 b 790 51 708 -8 756 10 l 867 143 l 808 192 b 732 101 779 156 750 121 b 664 67 710 75 690 67 b 588 136 622 67 592 88 l 589 153 l 589 325 l 1003 325 l 1003 474 b 815 658 1003 601 944 658 l 699 658 b 553 601 632 658 583 639 b 429 660 524 638 481 660 l 243 660 b 83 500 154 660 83 589 l 83 153 b 243 -7 83 64 154 -7 z m 160 153 l 160 500 b 243 586 160 550 193 586 l 429 586 b 513 500 479 586 513 550 l 513 153 b 429 68 513 103 481 68 l 243 68 b 160 153 193 68 160 103 z m 589 401 l 589 461 b 699 585 589 549 621 585 l 815 585 b 928 469 901 585 928 557 l 928 401 z "},"ŕ":{"ha":838,"x_min":0,"x_max":0,"o":"m 119 0 l 497 0 l 497 74 l 353 74 b 339 88 344 74 339 79 l 339 421 b 485 547 401 476 460 526 b 667 543 554 606 638 608 l 733 583 b 435 607 679 686 540 694 b 339 521 418 590 382 558 l 339 614 b 300 653 339 636 322 653 l 104 653 l 104 579 l 249 579 b 263 565 257 579 263 574 l 263 88 b 249 74 263 79 257 74 l 119 74 z m 328 786 l 382 744 l 506 893 l 451 935 z "},"ř":{"ha":838,"x_min":0,"x_max":0,"o":"m 119 0 l 497 0 l 497 74 l 353 74 b 339 88 344 74 339 79 l 339 421 b 485 547 401 476 460 526 b 667 543 554 606 638 608 l 733 583 b 435 607 679 686 540 694 b 339 521 418 590 382 558 l 339 614 b 300 653 339 636 322 653 l 104 653 l 104 579 l 249 579 b 263 565 257 579 263 574 l 263 88 b 249 74 263 79 257 74 l 119 74 z m 214 924 l 379 771 l 429 771 l 590 924 l 547 969 l 403 840 l 400 840 l 257 969 z "},"ś":{"ha":751,"x_min":0,"x_max":0,"o":"m 132 0 l 444 0 b 626 185 532 0 626 82 b 444 379 626 288 563 374 l 313 385 b 200 490 235 388 200 425 b 296 579 200 540 244 579 l 518 579 l 518 656 l 296 656 b 125 486 210 656 125 582 b 313 307 125 358 222 310 l 444 303 b 549 185 503 301 549 250 b 444 76 549 125 501 76 l 132 76 z m 275 786 l 329 744 l 453 893 l 399 935 z "},"š":{"ha":751,"x_min":0,"x_max":0,"o":"m 132 0 l 444 0 b 626 185 532 0 626 82 b 444 379 626 288 563 374 l 313 385 b 200 490 235 388 200 425 b 296 579 200 540 244 579 l 518 579 l 518 656 l 296 656 b 125 486 210 656 125 582 b 313 307 125 358 222 310 l 444 303 b 549 185 503 301 549 250 b 444 76 549 125 501 76 l 132 76 z m 161 924 l 326 771 l 376 771 l 538 924 l 494 969 l 350 840 l 347 840 l 204 969 z "},"ş":{"ha":751,"x_min":0,"x_max":0,"o":"m 132 0 l 288 0 l 253 -129 l 304 -171 l 403 -169 b 460 -224 442 -169 460 -192 l 460 -225 b 403 -274 460 -244 436 -274 l 329 -274 b 271 -250 315 -274 286 -264 l 232 -311 b 329 -347 251 -326 297 -347 l 403 -347 b 533 -225 474 -347 533 -282 l 533 -224 b 403 -96 533 -150 492 -96 l 331 -96 l 365 0 l 444 0 b 626 185 532 0 626 82 b 444 379 626 288 563 374 l 313 385 b 200 490 235 388 200 425 b 296 579 200 540 244 579 l 518 579 l 518 656 l 296 656 b 125 486 210 656 125 582 b 313 307 125 358 222 310 l 444 303 b 549 185 503 301 549 250 b 444 76 549 125 501 76 l 132 76 z "},"ú":{"ha":900,"x_min":0,"x_max":0,"o":"m 631 653 l 631 258 b 460 110 558 194 488 133 b 265 176 372 36 265 51 l 265 653 l 188 653 l 188 176 b 510 50 188 -17 375 -61 b 631 158 531 69 578 111 l 631 39 b 669 0 631 17 647 0 l 796 0 l 796 74 l 721 74 b 707 88 713 74 707 78 l 706 653 z m 383 788 l 438 746 l 561 894 l 507 936 z "},"û":{"ha":900,"x_min":0,"x_max":0,"o":"m 631 653 l 631 258 b 460 110 558 194 488 133 b 265 176 372 36 265 51 l 265 653 l 188 653 l 188 176 b 510 50 188 -17 375 -61 b 631 158 531 69 578 111 l 631 39 b 669 0 631 17 647 0 l 796 0 l 796 74 l 721 74 b 707 88 713 74 707 78 l 706 653 z m 269 813 l 313 767 l 456 896 l 458 896 l 603 767 l 646 813 l 485 965 l 435 965 z "},"ü":{"ha":900,"x_min":0,"x_max":0,"o":"m 631 653 l 631 258 b 460 110 558 194 488 133 b 265 176 372 36 265 51 l 265 653 l 188 653 l 188 176 b 510 50 188 -17 375 -61 b 631 158 531 69 578 111 l 631 39 b 669 0 631 17 647 0 l 796 0 l 796 74 l 721 74 b 707 88 713 74 707 78 l 706 653 z m 275 874 b 332 818 275 840 301 818 b 389 874 363 818 389 840 b 332 928 389 906 363 928 b 275 874 301 928 275 906 z m 526 874 b 583 818 526 840 553 818 b 640 874 614 818 640 840 b 583 928 640 906 614 928 b 526 874 553 928 526 906 z "},"ù":{"ha":900,"x_min":0,"x_max":0,"o":"m 631 653 l 631 258 b 460 110 558 194 488 133 b 265 176 372 36 265 51 l 265 653 l 188 653 l 188 176 b 510 50 188 -17 375 -61 b 631 158 531 69 578 111 l 631 39 b 669 0 631 17 647 0 l 796 0 l 796 74 l 721 74 b 707 88 713 74 707 78 l 706 653 z m 356 908 l 479 760 l 533 801 l 410 950 z "},"ẃ":{"ha":1197,"x_min":0,"x_max":0,"o":"m 793 -6 l 1035 579 l 1093 579 l 1093 653 l 865 653 l 865 579 l 953 579 l 758 117 l 619 544 l 542 549 l 326 117 l 235 579 l 310 579 l 310 653 l 82 653 l 82 579 l 158 579 l 269 0 l 350 -6 l 572 449 l 710 0 z m 450 786 l 504 744 l 628 893 l 574 935 z "},"ŵ":{"ha":1197,"x_min":0,"x_max":0,"o":"m 793 -6 l 1035 579 l 1093 579 l 1093 653 l 865 653 l 865 579 l 953 579 l 758 117 l 619 544 l 542 549 l 326 117 l 235 579 l 310 579 l 310 653 l 82 653 l 82 579 l 158 579 l 269 0 l 350 -6 l 572 449 l 710 0 z m 336 811 l 379 765 l 522 894 l 525 894 l 669 765 l 713 811 l 551 964 l 501 964 z "},"ẅ":{"ha":1197,"x_min":0,"x_max":0,"o":"m 793 -6 l 1035 579 l 1093 579 l 1093 653 l 865 653 l 865 579 l 953 579 l 758 117 l 619 544 l 542 549 l 326 117 l 235 579 l 310 579 l 310 653 l 82 653 l 82 579 l 158 579 l 269 0 l 350 -6 l 572 449 l 710 0 z m 342 872 b 399 817 342 839 368 817 b 456 872 429 817 456 839 b 399 926 456 904 429 926 b 342 872 368 926 342 904 z m 593 872 b 650 817 593 839 619 817 b 707 872 681 817 707 839 b 650 926 707 904 681 926 b 593 872 619 926 593 904 z "},"ẁ":{"ha":1197,"x_min":0,"x_max":0,"o":"m 793 -6 l 1035 579 l 1093 579 l 1093 653 l 865 653 l 865 579 l 953 579 l 758 117 l 619 544 l 542 549 l 326 117 l 235 579 l 310 579 l 310 653 l 82 653 l 82 579 l 158 579 l 269 0 l 350 -6 l 572 449 l 710 0 z m 422 907 l 546 758 l 600 800 l 476 949 z "},"ý":{"ha":896,"x_min":0,"x_max":0,"o":"m 214 -278 l 531 -278 b 710 -72 624 -278 710 -207 l 710 565 b 724 579 710 574 715 579 l 771 579 l 771 653 l 556 653 l 556 579 l 619 579 b 633 565 628 579 633 574 l 633 440 l 393 100 b 325 65 374 72 353 65 b 244 168 278 65 244 93 l 244 565 b 258 579 244 574 250 579 l 317 579 l 317 653 l 104 653 l 104 579 l 153 579 b 167 565 161 579 167 574 l 167 168 b 325 -11 167 44 244 -11 b 454 56 371 -11 421 8 l 633 308 l 633 -72 b 531 -204 633 -165 588 -204 l 214 -204 z m 363 786 l 417 744 l 540 893 l 486 935 z "},"ŷ":{"ha":896,"x_min":0,"x_max":0,"o":"m 214 -278 l 531 -278 b 710 -72 624 -278 710 -207 l 710 565 b 724 579 710 574 715 579 l 771 579 l 771 653 l 556 653 l 556 579 l 619 579 b 633 565 628 579 633 574 l 633 440 l 393 100 b 325 65 374 72 353 65 b 244 168 278 65 244 93 l 244 565 b 258 579 244 574 250 579 l 317 579 l 317 653 l 104 653 l 104 579 l 153 579 b 167 565 161 579 167 574 l 167 168 b 325 -11 167 44 244 -11 b 454 56 371 -11 421 8 l 633 308 l 633 -72 b 531 -204 633 -165 588 -204 l 214 -204 z m 249 811 l 292 765 l 435 894 l 438 894 l 582 765 l 625 811 l 464 964 l 414 964 z "},"ÿ":{"ha":896,"x_min":0,"x_max":0,"o":"m 214 -278 l 531 -278 b 710 -72 624 -278 710 -207 l 710 565 b 724 579 710 574 715 579 l 771 579 l 771 653 l 556 653 l 556 579 l 619 579 b 633 565 628 579 633 574 l 633 440 l 393 100 b 325 65 374 72 353 65 b 244 168 278 65 244 93 l 244 565 b 258 579 244 574 250 579 l 317 579 l 317 653 l 104 653 l 104 579 l 153 579 b 167 565 161 579 167 574 l 167 168 b 325 -11 167 44 244 -11 b 454 56 371 -11 421 8 l 633 308 l 633 -72 b 531 -204 633 -165 588 -204 l 214 -204 z m 254 872 b 311 817 254 839 281 817 b 368 872 342 817 368 839 b 311 926 368 904 342 926 b 254 872 281 926 254 904 z m 506 872 b 563 817 506 839 532 817 b 619 872 593 817 619 839 b 563 926 619 904 593 926 b 506 872 532 926 506 904 z "},"ỳ":{"ha":896,"x_min":0,"x_max":0,"o":"m 214 -278 l 531 -278 b 710 -72 624 -278 710 -207 l 710 565 b 724 579 710 574 715 579 l 771 579 l 771 653 l 556 653 l 556 579 l 619 579 b 633 565 628 579 633 574 l 633 440 l 393 100 b 325 65 374 72 353 65 b 244 168 278 65 244 93 l 244 565 b 258 579 244 574 250 579 l 317 579 l 317 653 l 104 653 l 104 579 l 153 579 b 167 565 161 579 167 574 l 167 168 b 325 -11 167 44 244 -11 b 454 56 371 -11 421 8 l 633 308 l 633 -72 b 531 -204 633 -165 588 -204 l 214 -204 z m 335 907 l 458 758 l 513 800 l 389 949 z "},"ź":{"ha":729,"x_min":0,"x_max":0,"o":"m 156 0 l 576 0 b 604 28 594 0 604 10 l 604 171 l 528 171 l 528 83 b 514 69 528 75 522 69 l 222 69 l 582 599 l 547 653 l 161 653 b 133 625 143 653 133 643 l 133 499 l 210 499 l 210 571 b 224 585 210 579 215 585 l 486 585 l 125 58 z m 289 786 l 343 744 l 467 893 l 413 935 z "},"ž":{"ha":729,"x_min":0,"x_max":0,"o":"m 156 0 l 576 0 b 604 28 594 0 604 10 l 604 171 l 528 171 l 528 83 b 514 69 528 75 522 69 l 222 69 l 582 599 l 547 653 l 161 653 b 133 625 143 653 133 643 l 133 499 l 210 499 l 210 571 b 224 585 210 579 215 585 l 486 585 l 125 58 z m 175 924 l 340 771 l 390 771 l 551 924 l 508 969 l 364 840 l 361 840 l 218 969 z "},".":{"ha":242,"x_min":0,"x_max":0,"o":"m 114 -22 b 176 39 147 -22 176 3 b 114 99 176 74 147 99 b 51 39 81 99 51 74 b 114 -22 51 3 81 -22 z "},",":{"ha":283,"x_min":0,"x_max":0,"o":"m 40 -117 l 88 -182 b 224 35 143 -146 221 -49 l 139 47 b 40 -117 135 -1 81 -92 z "},":":{"ha":250,"x_min":0,"x_max":0,"o":"m 125 -22 b 188 39 158 -22 188 3 b 125 99 188 74 158 99 b 63 39 92 99 63 74 b 125 -22 63 3 92 -22 z m 63 558 b 125 497 63 522 92 497 b 188 558 158 497 188 522 b 125 618 188 593 158 618 b 63 558 92 618 63 593 z "},";":{"ha":313,"x_min":0,"x_max":0,"o":"m 56 -117 l 103 -182 b 239 35 158 -146 236 -49 l 154 47 b 56 -117 150 -1 96 -92 z m 125 558 b 188 497 125 522 154 497 b 250 558 221 497 250 522 b 188 618 250 593 221 618 b 125 558 154 618 125 593 z "},"…":{"ha":867,"x_min":0,"x_max":0,"o":"m 146 -14 b 208 47 179 -14 208 11 b 146 107 208 82 179 107 b 83 47 113 107 83 82 b 146 -14 83 11 113 -14 z m 371 47 b 433 -14 371 11 400 -14 b 496 47 467 -14 496 11 b 433 107 496 82 467 107 b 371 47 400 107 371 82 z m 658 47 b 721 -14 658 11 688 -14 b 783 47 754 -14 783 11 b 721 107 783 82 754 107 b 658 47 688 107 658 82 z "},"!":{"ha":292,"x_min":0,"x_max":0,"o":"m 108 318 l 185 318 l 185 1042 l 108 1042 z m 83 39 b 146 -22 83 3 113 -22 b 208 39 179 -22 208 3 b 146 99 208 74 179 99 b 83 39 113 99 83 74 z "},"¡":{"ha":292,"x_min":0,"x_max":0,"o":"m 108 -283 l 185 -283 l 185 440 l 108 440 z m 83 719 b 146 660 83 685 113 660 b 208 719 179 660 208 685 b 146 781 208 756 179 781 b 83 719 113 781 83 756 z "},"?":{"ha":679,"x_min":0,"x_max":0,"o":"m 333 -22 b 396 39 367 -22 396 3 b 333 99 396 74 367 99 b 271 39 300 99 271 74 b 333 -22 271 3 300 -22 z m 83 746 l 164 746 l 164 875 b 254 967 164 931 200 967 l 424 967 b 515 875 481 967 515 931 l 515 710 l 293 503 l 290 503 l 290 500 l 288 497 l 290 494 l 290 308 l 368 308 l 368 463 l 576 656 b 596 703 589 668 596 683 l 596 875 b 424 1047 596 969 521 1047 l 254 1047 b 83 875 160 1047 83 969 z "},"¿":{"ha":679,"x_min":0,"x_max":0,"o":"m 256 -307 l 425 -307 b 596 -135 519 -307 596 -229 l 596 -6 l 515 -6 l 515 -135 b 425 -226 515 -190 479 -226 l 256 -226 b 164 -135 199 -226 164 -190 l 164 31 l 386 238 l 389 238 l 389 240 l 392 243 l 389 246 l 389 432 l 311 432 l 311 278 l 103 85 b 83 38 90 72 83 57 l 83 -135 b 256 -307 83 -229 158 -307 z m 283 701 b 346 642 283 667 313 642 b 408 701 379 642 408 667 b 346 763 408 738 379 763 b 283 701 313 763 283 738 z "},"·":{"ha":250,"x_min":0,"x_max":0,"o":"m 125 317 b 188 378 158 317 188 342 b 125 438 188 413 158 438 b 63 378 92 438 63 413 b 125 317 63 342 92 317 z "},"•":{"ha":475,"x_min":0,"x_max":0,"o":"m 238 258 b 357 375 303 258 357 307 b 238 492 357 443 303 492 b 118 375 172 492 118 443 b 238 258 118 307 172 258 z "},"*":{"ha":640,"x_min":0,"x_max":0,"o":"m 413 657 l 468 699 l 376 819 l 522 865 l 500 932 l 356 885 l 356 1043 l 286 1043 l 286 885 l 140 932 l 118 865 l 263 819 l 172 699 l 228 657 l 319 779 z "},"#":{"ha":958,"x_min":0,"x_max":0,"o":"m 272 32 l 336 329 l 549 329 l 488 32 l 556 32 l 619 329 l 814 329 l 828 399 l 633 399 l 682 628 l 903 628 l 917 697 l 697 697 l 763 1015 l 693 1015 l 626 697 l 414 697 l 479 1015 l 410 1015 l 343 697 l 144 697 l 131 628 l 328 628 l 279 399 l 56 399 l 42 329 l 265 329 l 204 32 z m 350 399 l 399 628 l 611 628 l 563 399 z "},"/":{"ha":490,"x_min":0,"x_max":0,"o":"m 179 -103 l 365 939 l 296 939 l 111 -103 z "},"\\":{"ha":490,"x_min":0,"x_max":0,"o":"m 297 -103 l 365 -103 l 181 939 l 111 939 z "},"-":{"ha":578,"x_min":0,"x_max":0,"o":"m 139 375 l 439 375 l 439 451 l 139 451 z "},"–":{"ha":783,"x_min":0,"x_max":0,"o":"m 139 375 l 644 375 l 644 451 l 139 451 z "},"—":{"ha":1214,"x_min":0,"x_max":0,"o":"m 139 375 l 1075 375 l 1075 451 l 139 451 z "},"_":{"ha":783,"x_min":0,"x_max":0,"o":"m 139 -144 l 644 -144 l 644 -68 l 139 -68 z "},"(":{"ha":833,"x_min":0,"x_max":0,"o":"m 589 -237 l 607 -167 b 369 217 475 -135 369 33 l 369 633 b 606 1015 369 817 475 992 l 593 1089 b 293 633 425 1057 293 842 l 293 217 b 589 -237 293 8 424 -199 z "},")":{"ha":833,"x_min":0,"x_max":0,"o":"m 215 -167 l 233 -237 b 535 217 399 -199 535 8 l 535 633 b 229 1089 535 842 397 1057 l 217 1015 b 454 633 347 992 454 817 l 454 217 b 215 -167 454 33 347 -135 z "},"{":{"ha":678,"x_min":0,"x_max":0,"o":"m 540 -237 l 553 -164 b 317 135 422 -140 317 -49 l 317 364 l 233 417 l 317 468 l 317 717 b 553 1015 317 900 422 992 l 540 1089 b 240 717 372 1057 240 925 l 240 510 l 125 436 l 125 396 l 240 322 l 240 135 b 540 -237 240 -74 372 -206 z "},"}":{"ha":678,"x_min":0,"x_max":0,"o":"m 125 -164 l 138 -237 b 438 135 306 -206 438 -74 l 438 322 l 553 396 l 553 436 l 438 510 l 438 717 b 138 1089 438 925 306 1057 l 125 1015 b 361 717 256 992 361 900 l 361 468 l 444 417 l 361 364 l 361 135 b 125 -164 361 -49 256 -140 z "},"[":{"ha":436,"x_min":0,"x_max":0,"o":"m 97 -143 l 339 -143 l 339 -71 l 174 -71 l 174 969 l 339 969 l 339 1042 l 97 1042 z "},"]":{"ha":436,"x_min":0,"x_max":0,"o":"m 97 -143 l 339 -143 l 339 1042 l 97 1042 l 97 969 l 263 969 l 263 -71 l 97 -71 z "},"‚":{"ha":585,"x_min":0,"x_max":0,"o":"m 208 -68 l 264 -119 b 376 131 319 -56 376 39 l 293 124 b 208 -68 285 64 247 -21 z "},"„":{"ha":833,"x_min":0,"x_max":0,"o":"m 208 -68 l 264 -119 b 376 131 319 -56 376 39 l 293 124 b 208 -68 285 64 247 -21 z m 422 -94 l 476 -146 b 592 131 533 -79 592 33 l 508 124 b 422 -94 500 57 463 -44 z "},"“":{"ha":718,"x_min":0,"x_max":0,"o":"m 157 754 l 213 703 b 325 953 268 767 325 861 l 242 946 b 157 754 233 886 196 801 z m 371 728 l 425 676 b 540 953 482 743 540 856 l 457 946 b 371 728 449 879 411 778 z "},"”":{"ha":833,"x_min":0,"x_max":0,"o":"m 589 906 l 528 950 b 443 690 479 881 433 781 l 525 706 b 589 906 526 765 556 854 z m 228 668 l 311 683 b 374 908 311 750 339 856 l 314 954 b 228 668 264 882 218 764 z "},"‘":{"ha":833,"x_min":0,"x_max":0,"o":"m 485 908 l 425 954 b 339 668 375 882 329 764 l 422 683 b 485 908 422 750 450 856 z "},"’":{"ha":833,"x_min":0,"x_max":0,"o":"m 371 728 l 425 676 b 540 953 482 743 540 856 l 457 946 b 371 728 449 879 411 778 z "},"«":{"ha":833,"x_min":0,"x_max":0,"o":"m 329 75 l 374 122 l 164 374 l 164 400 l 374 651 l 329 699 l 94 442 l 94 333 z m 385 333 l 619 75 l 664 122 l 454 374 l 454 400 l 664 651 l 619 699 l 385 442 z "},"»":{"ha":833,"x_min":0,"x_max":0,"o":"m 460 75 l 694 333 l 694 442 l 460 699 l 415 651 l 625 400 l 625 374 l 415 122 z m 125 122 l 169 75 l 404 333 l 404 442 l 169 699 l 125 651 l 335 400 l 335 374 z "},"‹":{"ha":446,"x_min":0,"x_max":0,"o":"m 318 75 l 363 122 l 153 374 l 153 400 l 363 651 l 318 699 l 83 442 l 83 333 z "},"›":{"ha":446,"x_min":0,"x_max":0,"o":"m 128 75 l 363 333 l 363 442 l 128 699 l 83 651 l 293 400 l 293 374 l 83 122 z "},"\"":{"ha":568,"x_min":0,"x_max":0,"o":"m 150 617 l 224 631 l 213 892 l 139 892 z m 344 892 l 356 617 l 429 631 l 418 892 z "},"'":{"ha":263,"x_min":0,"x_max":0,"o":"m 51 728 l 106 676 b 221 953 163 743 221 856 l 138 946 b 51 728 129 879 92 778 z "},"@":{"ha":1014,"x_min":0,"x_max":0,"o":"m 233 -146 l 790 -146 l 790 -69 l 276 -69 l 42 367 l 244 815 l 779 815 l 971 507 l 838 92 l 746 92 b 718 119 728 92 718 101 l 718 629 l 640 629 l 640 535 b 468 617 594 556 528 589 b 388 635 440 628 411 635 b 253 485 289 635 253 565 l 253 249 b 396 94 253 157 306 94 b 519 143 433 94 478 110 b 640 244 539 160 589 200 l 639 72 b 694 19 639 40 663 19 l 888 19 l 1056 513 l 821 892 l 196 892 l -42 367 z m 332 249 l 332 485 b 388 556 332 535 347 556 b 435 546 401 556 415 553 b 640 449 506 513 589 472 l 640 351 b 468 204 574 292 496 226 b 396 174 439 181 419 174 b 332 249 354 174 332 193 z "},"&":{"ha":800,"x_min":0,"x_max":0,"o":"m 653 -12 l 724 17 l 606 228 l 699 308 l 646 365 l 567 296 l 407 579 l 571 579 l 569 656 l 364 656 l 231 892 l 626 892 l 626 968 l 167 968 l 135 901 l 274 656 l 238 656 b 76 475 119 656 76 574 l 78 176 b 249 -10 78 64 140 -10 b 400 50 296 -10 350 8 l 546 176 z m 154 475 b 238 579 154 543 179 579 l 318 579 l 507 244 b 350 110 436 183 367 124 b 249 67 313 78 282 67 b 156 176 190 67 156 100 z "},"©":{"ha":833,"x_min":0,"x_max":0,"o":"m 360 160 b 479 213 404 160 447 178 b 551 301 497 231 525 265 l 507 342 b 431 254 481 307 450 272 b 360 224 408 231 389 224 b 315 276 332 224 315 240 l 315 488 b 383 565 315 544 335 565 l 482 565 b 542 517 526 565 533 551 l 610 524 b 490 629 596 592 575 629 l 374 629 b 250 488 293 629 250 578 l 250 272 b 360 160 250 201 304 160 z m -33 401 b 414 -44 -33 156 167 -44 b 860 401 660 -44 860 156 b 414 847 860 647 660 847 b -33 401 167 847 -33 647 z m 26 401 b 414 788 26 617 199 788 b 800 401 628 788 800 617 b 414 15 800 186 628 15 b 26 401 199 15 26 186 z "},"™":{"ha":568,"x_min":0,"x_max":0,"o":"m 183 224 l 183 192 l 200 192 l 200 238 b 194 244 200 242 199 244 l 25 244 b 18 238 21 244 18 242 l 18 192 l 36 192 l 36 224 b 39 226 36 225 38 226 l 97 226 b 100 224 99 226 100 225 l 100 21 b 97 18 100 19 99 18 l 65 18 l 65 0 l 153 0 l 153 18 l 121 18 b 118 21 119 18 118 19 l 118 224 b 121 226 118 225 119 226 l 179 226 b 183 224 182 226 183 225 z m 236 226 l 246 226 b 249 224 247 226 249 226 l 249 0 l 272 0 l 364 213 l 400 44 l 419 43 l 514 207 l 514 21 b 511 17 514 18 513 17 l 488 17 l 488 0 l 549 0 l 549 17 l 535 17 b 532 21 533 17 532 18 l 532 244 l 514 244 l 414 72 l 376 244 l 357 244 l 267 32 l 267 224 b 271 226 267 226 268 226 l 283 226 l 283 244 l 236 244 z "},"|":{"ha":629,"x_min":0,"x_max":0,"o":"m 278 -172 l 346 -172 l 351 981 l 282 981 z "},">":{"ha":765,"x_min":0,"x_max":0,"o":"m 142 61 l 626 333 l 626 442 l 142 713 l 111 651 l 557 400 l 557 374 l 111 122 z "},"<":{"ha":765,"x_min":0,"x_max":0,"o":"m 624 61 l 654 122 l 208 374 l 208 400 l 654 651 l 624 713 l 139 442 l 139 333 z "},"%":{"ha":1010,"x_min":0,"x_max":0,"o":"m 267 19 l 804 1010 l 743 1042 l 206 51 z m 42 728 b 193 574 42 643 110 574 b 346 728 281 574 346 643 l 346 879 b 193 1031 346 963 279 1031 b 42 879 110 1031 42 963 z m 111 728 l 111 879 b 193 961 111 929 144 961 b 276 879 246 961 276 929 l 276 728 b 193 643 276 676 244 643 b 111 728 144 643 111 676 z m 664 203 b 815 49 664 118 732 49 b 968 203 901 49 968 118 l 968 354 b 815 506 968 436 901 506 b 664 354 732 506 664 438 z m 733 203 l 733 354 b 815 436 733 403 765 436 b 899 354 867 436 899 403 l 899 203 b 815 118 899 151 867 118 b 733 203 765 118 733 151 z "},"̈":{"ha":0,"x_min":0,"x_max":0,"o":"m 381 817 b 438 872 411 817 438 839 b 381 926 438 904 411 926 b 324 872 350 926 324 904 b 381 817 324 839 350 817 z m 575 872 b 632 817 575 839 601 817 b 689 872 663 817 689 839 b 632 926 689 904 663 926 b 575 872 601 926 575 904 z "},"̀":{"ha":0,"x_min":0,"x_max":0,"o":"m 124 949 l 69 907 l 193 758 l 247 800 z "},"́":{"ha":0,"x_min":0,"x_max":0,"o":"m 151 744 l 275 893 l 221 935 l 97 786 z "},"̂":{"ha":0,"x_min":0,"x_max":0,"o":"m 110 811 l 153 765 l 296 894 l 299 894 l 443 765 l 486 811 l 325 964 l 275 964 z "},"̌":{"ha":0,"x_min":0,"x_max":0,"o":"m 83 924 l 249 771 l 299 771 l 460 924 l 417 969 l 272 840 l 269 840 l 126 969 z "},"̧":{"ha":0,"x_min":0,"x_max":0,"o":"m 226 -314 l 300 -314 b 431 -192 371 -314 431 -249 l 431 -190 b 300 -62 431 -117 389 -62 l 228 -62 l 279 81 l 201 92 l 150 -96 l 201 -137 l 300 -136 b 357 -190 339 -136 357 -158 l 357 -192 b 300 -240 357 -211 333 -240 l 226 -240 b 168 -217 213 -240 183 -231 l 129 -278 b 226 -314 149 -293 194 -314 z "},"`":{"ha":344,"x_min":0,"x_max":0,"o":"m 124 949 l 69 907 l 193 758 l 247 800 z "},"´":{"ha":344,"x_min":0,"x_max":0,"o":"m 151 744 l 275 893 l 221 935 l 97 786 z "},"ˆ":{"ha":543,"x_min":0,"x_max":0,"o":"m 110 756 l 153 710 l 296 839 l 299 839 l 443 710 l 486 756 l 325 908 l 275 908 z "},"ˇ":{"ha":543,"x_min":0,"x_max":0,"o":"m 83 924 l 249 771 l 299 771 l 460 924 l 417 969 l 272 840 l 269 840 l 126 969 z "},"¸":{"ha":563,"x_min":0,"x_max":0,"o":"m 226 -314 l 300 -314 b 431 -192 371 -314 431 -249 l 431 -190 b 300 -62 431 -117 389 -62 l 228 -62 l 279 81 l 201 92 l 150 -96 l 201 -137 l 300 -136 b 357 -190 339 -136 357 -158 l 357 -192 b 300 -240 357 -211 333 -240 l 226 -240 b 168 -217 213 -240 183 -231 l 129 -278 b 226 -314 149 -293 194 -314 z "}}}
